<?xml version="1.0" encoding="UTF-8"?>
<svg id="Layer_2" data-name="Layer 2" xmlns="http://www.w3.org/2000/svg" viewBox="0 0 1187.32 512.26">
  <defs>
    <style>
      .cls-1 {
        fill: #32ffc3;
      }

      .cls-2 {
        fill: #fff;
      }
    </style>
  </defs>
  <g id="Layer_1-2" data-name="Layer 1">
    <g>
      <g>
        <g>
          <path class="cls-1" d="M688.15,155.73c1.57.73,3.49,1.09,5.73,1.09,3.27,0,5.8-.76,7.59-2.27,1.79-1.51,2.68-3.58,2.68-6.18s-.91-4.85-2.73-6.55c-1.82-1.7-4.4-2.55-7.73-2.55s-5.85.83-7.73,2.5c-1.88,1.67-2.82,3.8-2.82,6.41,0,1.7.44,3.2,1.32,4.5.88,1.3,2.1,2.32,3.68,3.05Z"/>
          <path class="cls-1" d="M705.92,175.69c-1.06-.33-2.15-.53-3.27-.59-1.12-.06-2.11-.09-2.95-.09h-11.27c-3.03.79-5.14,1.74-6.32,2.86-1.18,1.12-1.77,2.38-1.77,3.77s.53,2.55,1.59,3.27c1.06.73,2.55,1.23,4.45,1.5,1.91.27,4.08.41,6.5.41,4.18,0,7.49-.23,9.91-.68,2.42-.45,4.15-1.17,5.18-2.14,1.03-.97,1.54-2.15,1.54-3.55s-.33-2.38-1-3.14c-.67-.76-1.53-1.3-2.59-1.64Z"/>
          <path class="cls-1" d="M975.08,161l15.74-13.14v-48.77c0-8.27-6.7-14.98-14.98-14.98h-396.53c-8.28,0-14.99,6.71-14.99,14.98v110.52c0,8.28,6.71,14.99,14.99,14.99h396.53c8.28,0,14.98-6.71,14.98-14.99v-9.61h-1.74c-9.13-.09-17.09-6.01-20.26-15.09-3.03-8.64-.51-18.25,6.27-23.91ZM652.14,179.92l-4.11-12.73h-26.15l-4.11,12.73h-10.73l20.91-60h14l20.91,60h-10.73ZM715.56,188.92c-1.91,2.12-4.76,3.7-8.55,4.73-3.79,1.03-8.53,1.55-14.23,1.55-5.21,0-9.4-.41-12.55-1.23-3.15-.82-5.44-1.99-6.86-3.5-1.43-1.52-2.14-3.33-2.14-5.46,0-2.67,1.08-4.88,3.23-6.64,2.15-1.76,5.41-2.94,9.77-3.55v-1.36c-3.27.06-5.76-.32-7.46-1.14-1.7-.82-2.54-2.05-2.54-3.68s.82-3.06,2.45-4.27c1.64-1.21,4.36-2.21,8.18-3v-1.36c-3.7-.3-6.55-1.56-8.55-3.77-2-2.21-3-5.01-3-8.41,0-3.03.83-5.7,2.5-8,1.67-2.3,4.08-4.11,7.23-5.41,3.15-1.3,6.91-1.95,11.27-1.95h23.09v8.09l-15.18-2.09v1.45c3.94.67,6.8,1.85,8.59,3.55,1.79,1.7,2.68,3.88,2.68,6.55,0,2.49-.76,4.7-2.27,6.64-1.52,1.94-3.71,3.46-6.59,4.55-2.88,1.09-6.44,1.64-10.68,1.64-.97,0-1.94-.05-2.91-.14-.97-.09-2.15-.26-3.55-.5-1.76.91-3.06,1.73-3.91,2.45-.85.73-1.27,1.4-1.27,2,0,.55.32.97.95,1.27.64.3,1.46.5,2.46.59,1,.09,2.01.14,3.04.14h12.73c1.15,0,2.67.09,4.55.27,1.88.18,3.76.65,5.64,1.41,1.88.76,3.47,1.95,4.77,3.59,1.3,1.64,1.95,3.94,1.95,6.91,0,3.27-.95,5.97-2.86,8.09ZM769.06,171.6c-.97,1.91-2.3,3.58-4,5-1.7,1.42-3.74,2.53-6.14,3.32-2.39.79-5.17,1.18-8.32,1.18-3.88,0-7.26-.58-10.14-1.73-2.88-1.15-5.29-2.79-7.23-4.91-1.94-2.12-3.41-4.65-4.41-7.59-1-2.94-1.5-6.23-1.5-9.86s.48-6.92,1.45-10.05c.97-3.12,2.39-5.83,4.27-8.14,1.88-2.3,4.23-4.11,7.05-5.41,2.82-1.3,6.05-1.95,9.68-1.95,3.39,0,6.41.58,9.05,1.73,2.64,1.15,4.85,2.83,6.64,5.05,1.79,2.21,3.09,4.92,3.91,8.14.82,3.21,1.07,6.88.77,11l-33.16.41c.14,4.92,1.3,8.71,3.52,11.36,2.36,2.82,5.76,4.23,10.18,4.23,2,0,3.68-.27,5.05-.82,1.36-.55,2.48-1.27,3.36-2.18.88-.91,1.56-1.92,2.04-3.05.48-1.12.79-2.29.91-3.5l8.91,1.45c-.3,2.3-.94,4.41-1.91,6.32ZM825.88,179.92h-9.91v-24.82c0-5.15-.76-8.92-2.27-11.32-1.52-2.39-3.82-3.59-6.91-3.59-2.73,0-5.03.86-6.91,2.59-1.88,1.73-3.32,4.2-4.32,7.41-1,3.21-1.53,7-1.59,11.36v18.37h-9.91v-47.28h8.64l-.73,17.55h1.27c.61-4.24,1.61-7.74,3-10.5,1.39-2.76,3.23-4.82,5.5-6.18,2.27-1.36,5.01-2.05,8.23-2.05,5.27,0,9.24,1.88,11.91,5.64,2.67,3.76,4,9.49,4,17.18v25.64ZM865.34,179.37c-1.64.55-3.18.94-4.64,1.18-1.45.24-2.79.36-4,.36-4.61,0-8.06-1.27-10.36-3.82-2.3-2.55-3.45-6.39-3.45-11.55v-24.82h-6.45v-7.55h3.45c2-.12,3.44-.61,4.32-1.45.88-.85,1.44-2.21,1.68-4.09l.64-5.45h6v10.46h12.64v8.27h-12.64v24.18c0,2.36.55,4.08,1.64,5.14,1.09,1.06,2.64,1.59,4.64,1.59,1.09,0,2.21-.14,3.36-.41,1.15-.27,2.21-.77,3.18-1.5v9.46ZM888.16,179.92h-9.91v-47.28h9.91v47.28ZM887.98,124.5c-1.09.88-2.67,1.32-4.73,1.32s-3.64-.44-4.73-1.32c-1.09-.88-1.64-2.17-1.64-3.86s.55-2.97,1.64-3.82c1.09-.85,2.67-1.27,4.73-1.27s3.71.44,4.77,1.32c1.06.88,1.59,2.17,1.59,3.86s-.55,2.89-1.64,3.77ZM943.98,170.69c-.97,2.15-2.32,4.02-4.04,5.59-1.73,1.58-3.83,2.77-6.32,3.59-2.49.82-5.33,1.23-8.55,1.23-4,0-7.46-.62-10.36-1.86-2.91-1.24-5.3-2.97-7.18-5.18-1.88-2.21-3.29-4.8-4.23-7.77-.94-2.97-1.41-6.15-1.41-9.55,0-3.58.48-6.88,1.45-9.91.97-3.03,2.41-5.71,4.32-8.05,1.91-2.33,4.27-4.14,7.09-5.41,2.82-1.27,6.11-1.91,9.86-1.91,4.06,0,7.5.73,10.32,2.18,2.82,1.46,5.01,3.41,6.59,5.86,1.58,2.46,2.49,5.26,2.73,8.41l-9.18,2c-.06-2-.53-3.79-1.41-5.36-.88-1.58-2.09-2.79-3.64-3.64-1.55-.85-3.41-1.27-5.59-1.27-1.88,0-3.59.35-5.14,1.05-1.55.7-2.86,1.77-3.95,3.23-1.09,1.45-1.94,3.21-2.55,5.27-.61,2.06-.91,4.45-.91,7.18,0,3.64.53,6.71,1.59,9.23,1.06,2.52,2.58,4.42,4.55,5.73,1.97,1.3,4.38,1.95,7.23,1.95,2.55,0,4.64-.51,6.27-1.55,1.64-1.03,2.86-2.39,3.68-4.09.82-1.7,1.29-3.55,1.41-5.55l9,1.36c-.12,2.67-.67,5.08-1.64,7.23Z"/>
          <path class="cls-1" d="M760.97,151.31c-.09-1.8-.41-3.41-.95-4.81-.88-2.27-2.18-3.98-3.91-5.14-1.73-1.15-3.83-1.73-6.32-1.73-2.67,0-4.97.7-6.91,2.09-1.94,1.39-3.41,3.36-4.41,5.91-.47,1.2-.82,2.53-1.07,3.95l23.57-.28Z"/>
          <polygon class="cls-1" points="634.51 128.1 624.29 159.74 645.63 159.74 635.42 128.1 634.51 128.1"/>
        </g>
        <g>
          <path class="cls-1" d="M1158.04,56.61c-1.94-.37-3-3.22-4.32-5.21-1.74-2.99-3.76-6.34-6.11-9.04-3.62-4.53-10.41-8.5-14.3-10.73-2.41-1.54-5.54-3.11-1.86-5.54,4.98-3.22,11.2-6.3,15.29-10.96,3.51-3.72,6.09-8.54,7.92-11.56.93-1.33,1.7-3.27,3.36-3.57,2.15.06,4.91,6.61,6.48,8.69,5.68,9.56,12.52,12.52,20.53,17.7,2.02,1.51,1.53,2.7-.4,4.04-4.49,2.95-10.22,5.76-14.15,9.79-3.91,3.67-7.15,9.52-9.12,12.86-.9,1.31-1.68,3.21-3.28,3.53h-.04Z"/>
          <path class="cls-1" d="M1128.54,70.68c-.73-.14-1.13-1.22-1.63-1.97-.66-1.13-1.42-2.39-2.31-3.41-1.37-1.71-3.93-3.21-5.4-4.05-.91-.58-2.09-1.17-.7-2.09,1.88-1.22,4.23-2.38,5.78-4.14,1.33-1.41,2.3-3.23,2.99-4.37.35-.5.64-1.24,1.27-1.35.81.02,1.85,2.5,2.45,3.29,2.15,3.61,4.73,4.73,7.76,6.69.76.57.58,1.02-.15,1.53-1.7,1.11-3.86,2.18-5.35,3.7-1.48,1.39-2.7,3.6-3.44,4.86-.34.49-.63,1.21-1.24,1.33h-.02Z"/>
        </g>
        <path class="cls-2" d="M1048.12,194.96c-2.6-2.92-5.9-4.17-9.52-4.2l-49.45-.39c-5.28-.04-9.53-3.71-11.26-8.64-1.47-4.21-.75-9.92,3.35-13.34l97.93-81.78c4.05-3.38,9.34-3.5,13.46-1.53,4.74,2.26,7.13,6.58,7.26,11.86l3.06,126.49c.13,5.38-3.53,9.77-8.26,11.6s-10.11.88-13.71-3.17l-32.85-36.89Z"/>
        <rect class="cls-2" x="1129.53" y="86.84" width="41.99" height="148.45" rx="9.41" ry="9.41"/>
        <g>
          <path class="cls-2" d="M37.35,220.96c-7.11,0-13.46-1.69-19.03-5.07-5.58-3.38-9.92-8.39-13.04-15.02-3.12-6.63-4.68-14.77-4.68-24.44,0-6.94.88-13.22,2.63-18.84,1.76-5.62,4.37-10.45,7.84-14.49,3.47-4.04,7.79-7.13,12.98-9.29,5.18-2.15,11.15-3.23,17.91-3.23,5.27,0,9.99.66,14.16,1.98,4.17,1.32,7.75,3.21,10.74,5.66,2.98,2.46,5.29,5.42,6.92,8.89,1.62,3.47,2.48,7.4,2.57,11.79l-15.81,3.56c-.18-4.13-1.1-7.51-2.77-10.14-1.67-2.63-3.93-4.59-6.78-5.86-2.85-1.27-6.04-1.91-9.55-1.91-4.66,0-8.74,1.12-12.25,3.36-3.51,2.24-6.26,5.66-8.23,10.27-1.98,4.61-2.96,10.47-2.96,17.59,0,5.45.57,10.17,1.71,14.16,1.14,4,2.79,7.27,4.94,9.81,2.15,2.55,4.7,4.44,7.64,5.66,2.94,1.23,6.21,1.84,9.81,1.84,4.13,0,7.66-.74,10.6-2.24,2.94-1.49,5.25-3.69,6.92-6.59,1.67-2.9,2.63-6.5,2.9-10.8h-16.6v-12.38h32.54v44h-12.12l.92-23.32h-1.84c-1.05,5.45-2.75,10.03-5.07,13.77-2.33,3.73-5.38,6.54-9.15,8.43-3.78,1.89-8.39,2.83-13.83,2.83Z"/>
          <path class="cls-2" d="M93.34,219.25v-68.76h14.36l-.53,26.08h1.84c.7-6.41,1.86-11.66,3.49-15.74,1.62-4.08,3.84-7.09,6.65-9.02,2.81-1.93,6.19-2.9,10.14-2.9,1.05,0,2.19.09,3.42.26,1.23.18,2.55.53,3.95,1.05l-.79,17.91c-1.49-.7-3.01-1.21-4.54-1.51-1.54-.31-2.96-.46-4.28-.46-3.34,0-6.19.94-8.56,2.83-2.37,1.89-4.26,4.61-5.66,8.17-1.41,3.56-2.33,7.84-2.77,12.84v29.24h-16.73Z"/>
          <path class="cls-2" d="M161.83,220.96c-3.69,0-7.05-.68-10.08-2.04-3.03-1.36-5.45-3.47-7.25-6.32-1.8-2.85-2.7-6.48-2.7-10.87,0-3.77.72-6.96,2.17-9.55,1.45-2.59,3.56-4.7,6.32-6.32,2.77-1.62,6.04-2.92,9.81-3.89,3.77-.97,7.99-1.8,12.65-2.5,3.69-.61,6.56-1.16,8.63-1.65,2.06-.48,3.53-1.14,4.41-1.98.88-.83,1.32-2.08,1.32-3.75,0-2.98-1.05-5.44-3.16-7.38-2.11-1.93-5.14-2.9-9.09-2.9-2.46,0-4.83.44-7.11,1.32-2.28.88-4.22,2.28-5.8,4.22-1.58,1.93-2.59,4.52-3.03,7.77l-14.89-3.29c.61-4.13,1.82-7.64,3.62-10.54,1.8-2.9,4.1-5.29,6.92-7.18,2.81-1.89,5.99-3.27,9.55-4.15,3.56-.88,7.27-1.32,11.13-1.32,6.23,0,11.44,1.08,15.61,3.23,4.17,2.15,7.31,5.42,9.42,9.81,2.11,4.39,3.16,9.92,3.16,16.6v12.78c0,3.08.04,6.19.13,9.35.09,3.16.2,6.32.33,9.48.13,3.16.28,6.28.46,9.35h-14.89c-.09-2.9-.18-5.9-.26-9.02-.09-3.12-.18-6.34-.26-9.68h-1.58c-.97,3.78-2.59,7.22-4.87,10.34-2.28,3.12-5.16,5.58-8.63,7.38-3.47,1.8-7.49,2.7-12.05,2.7ZM168.29,208.58c1.84,0,3.75-.37,5.73-1.12,1.98-.75,3.84-1.82,5.6-3.23,1.76-1.4,3.31-3.2,4.68-5.4,1.36-2.19,2.35-4.79,2.96-7.77v-8.17h3.29c-1.23,1.32-2.88,2.31-4.94,2.96-2.06.66-4.33,1.19-6.78,1.58-2.46.4-4.9.84-7.31,1.32-2.42.48-4.61,1.1-6.59,1.84-1.98.75-3.58,1.82-4.81,3.23-1.23,1.41-1.84,3.29-1.84,5.66,0,2.81.92,5.03,2.77,6.65,1.84,1.63,4.26,2.44,7.25,2.44Z"/>
          <path class="cls-2" d="M218.74,239.93v-89.44h14.49l-.53,19.89,1.84.13c.97-4.83,2.44-8.87,4.41-12.12,1.98-3.25,4.52-5.68,7.64-7.31,3.12-1.62,6.74-2.44,10.87-2.44,5.8,0,10.76,1.45,14.89,4.35,4.13,2.9,7.31,7.05,9.55,12.45,2.24,5.4,3.36,11.88,3.36,19.43s-1.08,13.9-3.23,19.3c-2.15,5.4-5.25,9.55-9.29,12.45-4.04,2.9-8.91,4.35-14.62,4.35-4.39,0-8.15-.9-11.26-2.7-3.12-1.8-5.66-4.39-7.64-7.77-1.98-3.38-3.49-7.35-4.54-11.92h-1.84c.44,2.72.86,5.45,1.25,8.17.4,2.72.72,5.33.99,7.84.26,2.5.4,4.89.4,7.18v18.18h-16.73ZM252.59,207.26c3.34,0,6.15-.94,8.43-2.83,2.28-1.89,4.02-4.52,5.2-7.9,1.19-3.38,1.78-7.22,1.78-11.53s-.59-8.25-1.78-11.59c-1.19-3.34-2.94-5.93-5.27-7.77-2.33-1.84-5.16-2.77-8.5-2.77-2.72,0-5.14.62-7.25,1.84-2.11,1.23-3.89,2.85-5.33,4.87-1.45,2.02-2.55,4.28-3.29,6.78-.75,2.5-1.12,5.07-1.12,7.71v1.71c0,1.93.22,3.89.66,5.86.44,1.98,1.14,3.89,2.11,5.73.97,1.84,2.13,3.51,3.49,5.01,1.36,1.49,2.96,2.68,4.81,3.56,1.84.88,3.86,1.32,6.06,1.32Z"/>
          <path class="cls-2" d="M298.43,219.25v-92.47h16.86v20.02c0,1.76-.09,3.8-.26,6.13-.18,2.33-.42,4.79-.72,7.38-.31,2.59-.64,5.16-.99,7.71-.35,2.55-.66,5.01-.92,7.38h1.98c1.05-5.97,2.57-10.93,4.54-14.89,1.98-3.95,4.57-6.92,7.77-8.89,3.2-1.98,7.09-2.96,11.66-2.96,7.82,0,13.61,2.75,17.39,8.23,3.77,5.49,5.66,13.77,5.66,24.83v37.54h-16.6v-35.83c0-7.03-1.03-12.19-3.1-15.48-2.06-3.29-5.16-4.94-9.29-4.94-3.6,0-6.65,1.16-9.16,3.49-2.5,2.33-4.44,5.62-5.8,9.88-1.36,4.26-2.13,9.29-2.31,15.08v27.79h-16.73Z"/>
          <path class="cls-2" d="M377.34,219.25v-86.94h33.99c5.27,0,9.95.46,14.03,1.38,4.08.92,7.57,2.33,10.47,4.22,2.9,1.89,5.11,4.26,6.65,7.11,1.54,2.85,2.3,6.21,2.3,10.08,0,3.34-.7,6.35-2.11,9.02-1.41,2.68-3.65,4.85-6.72,6.52-3.08,1.67-7.11,2.81-12.12,3.42v1.58c8.43.53,14.6,2.59,18.51,6.19,3.91,3.6,5.86,8.43,5.86,14.49,0,5.01-1.25,9.2-3.75,12.58-2.5,3.38-6.24,5.95-11.2,7.71-4.96,1.76-11.18,2.63-18.64,2.63h-37.28ZM393.67,169.46h14.62c6.76,0,11.79-1.01,15.08-3.03,3.29-2.02,4.94-5.05,4.94-9.09s-1.51-6.74-4.54-8.63c-3.03-1.89-7.62-2.83-13.77-2.83h-16.33v23.58ZM393.67,205.55h20.81c5.8,0,10.14-.94,13.04-2.83,2.9-1.89,4.35-4.81,4.35-8.76,0-4.39-1.82-7.68-5.47-9.88-3.65-2.19-9.11-3.29-16.4-3.29h-16.33v24.76Z"/>
          <path class="cls-2" d="M469.94,141.27c-3.34,0-5.88-.7-7.64-2.11-1.76-1.4-2.63-3.47-2.63-6.19s.88-4.92,2.63-6.32c1.76-1.4,4.3-2.11,7.64-2.11s6.01.72,7.77,2.17c1.76,1.45,2.63,3.54,2.63,6.26s-.88,4.68-2.63,6.13c-1.76,1.45-4.35,2.17-7.77,2.17ZM461.64,219.25v-68.76h16.73v68.76h-16.73Z"/>
          <path class="cls-2" d="M519.07,220.7c-7.2,0-12.56-1.93-16.07-5.8-3.51-3.86-5.27-9.79-5.27-17.78v-33.33h-9.22l.13-12.38h4.74c3.25-.26,5.6-1.07,7.05-2.44,1.45-1.36,2.35-3.58,2.7-6.65l.92-7.25h9.88v15.41h17.65v13.7h-17.65v32.01c0,3.34.79,5.75,2.37,7.25,1.58,1.49,3.77,2.24,6.59,2.24,1.58,0,3.16-.2,4.74-.59s2.98-1.07,4.22-2.04v15.54c-2.46.88-4.76,1.45-6.92,1.71-2.15.26-4.11.4-5.86.4Z"/>
        </g>
        <g>
          <polygon class="cls-2" points="84.03 308.01 32.72 308.01 32.72 255.35 0 255.35 0 388.53 32.72 388.53 32.72 334.85 84.03 334.85 84.03 388.53 116.55 388.53 116.55 255.35 84.03 255.35 84.03 308.01"/>
          <path class="cls-2" d="M174.93,255.35l-44.84,133.18h35.15l7.12-24.42h50.64l7.08,24.42h35.35l-44.84-133.18h-45.65ZM178.89,341.71l17.66-60.54h2.42l17.54,60.54h-37.62Z"/>
          <path class="cls-2" d="M360.97,333.84c.13,5.38-.57,10.46-2.12,15.24-1.55,4.78-4.21,8.61-7.98,11.5-3.77,2.89-8.96,4.34-15.55,4.34s-12.15-1.61-17.07-4.84c-4.92-3.23-8.72-8.1-11.41-14.63-2.7-6.52-4.04-14.63-4.04-24.32,0-7.67.77-14.13,2.32-19.37,1.55-5.25,3.7-9.59,6.46-13.02,2.76-3.43,5.89-5.92,9.39-7.47,3.5-1.55,7.14-2.32,10.91-2.32,4.58,0,8.65,1.01,12.22,3.03,3.57,2.02,6.36,4.94,8.38,8.78,2.02,3.83,3.03,8.51,3.03,14.02l30.1-6.26c.27-6.73-.74-12.88-3.03-18.46-2.29-5.58-5.69-10.42-10.2-14.53-4.51-4.1-10.07-7.3-16.66-9.59-6.6-2.29-14.14-3.43-22.62-3.43-10.37,0-19.53,1.65-27.47,4.94-7.95,3.3-14.68,8.04-20.2,14.23-5.52,6.19-9.7,13.59-12.52,22.2-2.83,8.61-4.24,18.3-4.24,29.06s1.38,19.74,4.14,28.15c2.76,8.41,6.9,15.64,12.42,21.69,5.52,6.05,12.42,10.66,20.7,13.82,8.28,3.16,17.81,4.74,28.58,4.74s19.36-1.38,26.56-4.14c7.2-2.76,12.99-6.62,17.37-11.6,4.37-4.98,7.51-10.73,9.39-17.25,1.88-6.52,2.69-13.42,2.42-20.68l-29.29-3.83Z"/>
          <path class="cls-2" d="M508.82,341.91c-2.42-4.17-5.42-7.77-8.99-10.8-3.57-3.03-7.88-5.28-12.93-6.76-5.05-1.48-11.08-2.08-18.08-1.82v-2.42c6.73-2.69,13.06-6.29,18.99-10.8,5.92-4.51,11.34-9.65,16.26-15.44,4.91-5.78,9.06-11.94,12.42-18.46,3.36-6.52,5.86-13.22,7.47-20.08h-37.17c-1.21,5.65-3.17,11.3-5.86,16.95-2.7,5.65-6.06,11.1-10.1,16.34-4.04,5.25-8.72,9.99-14.04,14.23-5.32,4.24-11.21,7.64-17.67,10.19v-57.71h-32.72v133.18h32.72v-50.25h11.51c6.33,0,11.51.74,15.55,2.22,4.04,1.48,7.34,3.87,9.9,7.16,2.56,3.3,4.51,7.64,5.86,13.02l7.68,27.85h36.56l-11.11-32.69c-1.75-5.11-3.84-9.75-6.26-13.92Z"/>
          <path class="cls-2" d="M577.5,255.35l-44.84,133.18h35.15l7.12-24.42h50.64l7.08,24.42h35.35l-44.84-133.18h-45.65ZM581.46,341.71l17.66-60.54h2.42l17.54,60.54h-37.62Z"/>
          <polygon class="cls-2" points="694.25 255.35 657.89 255.35 657.89 282.79 694.25 282.79 694.25 388.53 726.98 388.53 726.98 282.79 763.54 282.79 763.54 255.35 726.98 255.35 694.25 255.35"/>
          <polygon class="cls-2" points="862.11 308.01 810.8 308.01 810.8 255.35 778.08 255.35 778.08 388.53 810.8 388.53 810.8 334.85 862.11 334.85 862.11 388.53 894.63 388.53 894.63 255.35 862.11 255.35 862.11 308.01"/>
          <path class="cls-2" d="M1022.8,270.08c-5.45-5.78-12.02-10.16-19.69-13.12-7.68-2.96-16.23-4.44-25.65-4.44-12.39,0-23.4,2.56-33.03,7.67-9.63,5.11-17.17,12.81-22.62,23.1-5.45,10.29-8.18,23.38-8.18,39.25,0,11.3,1.48,21.22,4.44,29.76,2.96,8.54,7.14,15.71,12.52,21.49,5.39,5.79,11.95,10.16,19.69,13.12,7.74,2.96,16.39,4.44,25.96,4.44s18.04-1.45,25.86-4.34c7.81-2.89,14.51-7.23,20.1-13.02,5.59-5.78,9.9-13.02,12.93-21.69,3.03-8.68,4.55-18.87,4.55-30.57s-1.45-21.29-4.34-29.97c-2.9-8.68-7.07-15.91-12.52-21.69ZM1003,346.55c-2.22,6.19-5.45,10.87-9.7,14.02-4.24,3.16-9.59,4.74-16.06,4.74-4.85,0-9.16-.94-12.93-2.82-3.77-1.88-6.9-4.64-9.39-8.27-2.49-3.63-4.38-8.14-5.66-13.52-1.28-5.38-1.92-11.63-1.92-18.77,0-9.28,1.11-17.12,3.33-23.51,2.22-6.39,5.52-11.2,9.9-14.43,4.37-3.23,9.66-4.84,15.86-4.84s11.92,1.68,16.36,5.04c4.44,3.36,7.81,8.34,10.1,14.93,2.29,6.59,3.43,14.73,3.43,24.42,0,9.15-1.11,16.82-3.33,23Z"/>
          <polygon class="cls-2" points="1155.41 255.35 1156.41 345.14 1155 345.14 1101.88 255.35 1058.85 255.35 1058.85 388.53 1090.77 388.53 1089.76 294.69 1091.17 294.69 1147.73 388.53 1187.32 388.53 1187.32 255.35 1155.41 255.35"/>
        </g>
        <g>
          <path class="cls-1" d="M265.4,464.15c-2.05-.92-4.28-1.39-6.68-1.39-2.95,0-5.56.63-7.86,1.9-2.3,1.27-4.08,3.07-5.34,5.39-1.27,2.33-1.9,5.1-1.9,8.32,0,2.4.39,4.38,1.18,5.96.79,1.58,1.81,2.81,3.08,3.7,1.27.89,2.69,1.51,4.26,1.85,1.57.34,3.15.51,4.73.51,2.88,0,5.29-.39,7.24-1.18,1.95-.79,3.54-1.87,4.78-3.24,1.23-1.37,2.12-2.91,2.67-4.62.55-1.71.82-3.46.82-5.24,0-3.08-.65-5.61-1.95-7.6-1.3-1.99-2.98-3.44-5.03-4.37Z"/>
          <path class="cls-1" d="M140.33,439.24c-2.57-2.19-5.67-3.29-9.3-3.29-3.29,0-6.25.99-8.89,2.98-2.64,1.99-4.71,4.98-6.22,8.99-1.51,4.01-2.26,9.09-2.26,15.25,0,4.38.41,8.25,1.23,11.61.82,3.36,1.99,6.18,3.49,8.47,1.51,2.3,3.32,4.04,5.44,5.24,2.12,1.2,4.52,1.8,7.19,1.8s4.96-.58,7.09-1.75c2.12-1.16,3.94-2.88,5.44-5.14,1.51-2.26,2.67-5.07,3.49-8.42.82-3.35,1.23-7.26,1.23-11.71,0-5.68-.69-10.56-2.05-14.64-1.37-4.07-3.34-7.21-5.91-9.4Z"/>
          <path class="cls-1" d="M.37,416.61v95.65h329.32v-95.65H.37ZM93.44,496.97h-48.18v-11.09l23.73-18.59c1.51-1.16,3.03-2.47,4.57-3.9,1.54-1.44,2.98-3.01,4.31-4.73,1.34-1.71,2.41-3.51,3.24-5.39.82-1.88,1.23-3.89,1.23-6.01s-.5-4.04-1.49-5.75c-.99-1.71-2.48-3.05-4.47-4.01-1.99-.96-4.49-1.44-7.5-1.44-2.05,0-3.99.29-5.8.87-1.82.58-3.39,1.56-4.73,2.93-1.34,1.37-2.3,3.22-2.88,5.55-.58,2.33-.67,5.21-.26,8.63l-9.14-1.23c-.48-5.07.07-9.47,1.64-13.2,1.57-3.73,4.16-6.64,7.76-8.73,3.6-2.09,8.13-3.13,13.61-3.13,4.66,0,8.66.75,12.02,2.26,3.35,1.51,5.96,3.66,7.81,6.47,1.85,2.81,2.77,6.2,2.77,10.17,0,3.08-.51,5.92-1.54,8.53-1.03,2.6-2.36,4.98-4.01,7.14-1.64,2.16-3.48,4.16-5.5,6.01-2.02,1.85-4.06,3.53-6.11,5.03l-19,15v.72l37.91-.31v8.22ZM156.05,477.45c-1.2,4.31-2.95,8.03-5.24,11.15-2.3,3.12-5.1,5.53-8.42,7.24-3.32,1.71-7.14,2.57-11.45,2.57s-8.03-.84-11.35-2.52c-3.32-1.68-6.13-4.07-8.42-7.19-2.3-3.12-4.02-6.81-5.19-11.09-1.17-4.28-1.75-8.99-1.75-14.12,0-7.53,1.11-13.95,3.34-19.26,2.22-5.31,5.36-9.36,9.4-12.17,4.04-2.81,8.8-4.21,14.28-4.21s10.39,1.47,14.33,4.42c3.94,2.95,6.97,7.07,9.09,12.38,2.12,5.31,3.18,11.52,3.18,18.64,0,5.14-.6,9.86-1.8,14.18ZM217.84,496.97h-48.18v-11.09l23.73-18.59c1.51-1.16,3.03-2.47,4.57-3.9,1.54-1.44,2.98-3.01,4.31-4.73,1.34-1.71,2.41-3.51,3.24-5.39.82-1.88,1.23-3.89,1.23-6.01s-.5-4.04-1.49-5.75c-.99-1.71-2.48-3.05-4.47-4.01-1.99-.96-4.49-1.44-7.5-1.44-2.05,0-3.99.29-5.8.87-1.82.58-3.39,1.56-4.73,2.93-1.34,1.37-2.3,3.22-2.88,5.55-.58,2.33-.67,5.21-.26,8.63l-9.14-1.23c-.48-5.07.07-9.47,1.64-13.2,1.57-3.73,4.16-6.64,7.76-8.73,3.6-2.09,8.13-3.13,13.61-3.13,4.66,0,8.66.75,12.02,2.26,3.35,1.51,5.96,3.66,7.81,6.47,1.85,2.81,2.77,6.2,2.77,10.17,0,3.08-.51,5.92-1.54,8.53-1.03,2.6-2.36,4.98-4.01,7.14-1.64,2.16-3.48,4.16-5.5,6.01-2.02,1.85-4.06,3.53-6.11,5.03l-19,15v.72l37.91-.31v8.22ZM280.5,484.54c-.96,2.67-2.43,5.05-4.42,7.14-1.99,2.09-4.5,3.73-7.55,4.93-3.05,1.2-6.73,1.8-11.04,1.8-8.97,0-16.01-2.93-21.11-8.78-5.1-5.86-7.65-14.47-7.65-25.84,0-7.26,1.08-13.59,3.24-19,2.16-5.41,5.32-9.6,9.5-12.58,4.18-2.98,9.28-4.47,15.31-4.47,3.22,0,6.15.43,8.78,1.28,2.64.86,4.95,2.14,6.93,3.85,1.99,1.71,3.6,3.84,4.83,6.37,1.23,2.53,1.95,5.48,2.16,8.83l-8.94,1.85c-.21-3.35-.99-6.06-2.36-8.12-1.37-2.05-3.07-3.54-5.09-4.47-2.02-.92-4.23-1.39-6.63-1.39-3.22,0-6.01.77-8.37,2.31-2.36,1.54-4.28,3.63-5.75,6.27-1.47,2.64-2.57,5.62-3.29,8.94-.72,3.32-1.08,6.8-1.08,10.43,0,2.4.19,4.91.56,7.55.38,2.64.87,5.08,1.49,7.34h.82c-.27-4.25.12-7.87,1.18-10.89,1.06-3.01,2.57-5.43,4.52-7.24,1.95-1.81,4.18-3.15,6.68-4.01,2.5-.86,5.05-1.28,7.65-1.28,3.83,0,7.33.77,10.48,2.31,3.15,1.54,5.7,3.85,7.65,6.93,1.95,3.08,2.93,6.92,2.93,11.51,0,2.95-.48,5.75-1.44,8.42Z"/>
        </g>
      </g>
      <g>
        <rect class="cls-2" x="352.73" y="440.21" width="5.54" height="39.3"/>
        <path class="cls-2" d="M382.5,447.95c-2.06,0-3.85.46-5.36,1.37-1.51.91-2.72,2.29-3.63,4.14-.91,1.85-1.59,4.2-2.02,7.06h-.77l.66-11.79h-4.94l.06,13.58v17.21h5.42v-11.73c.04-3.02.42-5.65,1.13-7.89.71-2.24,1.74-3.98,3.07-5.21,1.33-1.23,2.95-1.85,4.85-1.85,2.18,0,3.79.83,4.82,2.5,1.03,1.67,1.55,4.29,1.55,7.86v16.31h5.48v-16.67c0-5-.86-8.73-2.59-11.19-1.73-2.46-4.3-3.69-7.71-3.69Z"/>
        <path class="cls-2" d="M416.2,447.95c-2.06,0-3.85.46-5.36,1.37-1.51.91-2.72,2.29-3.63,4.14-.91,1.85-1.59,4.2-2.02,7.06h-.77l.66-11.79h-4.94l.06,13.58v17.21h5.42v-11.73c.04-3.02.42-5.65,1.13-7.89.71-2.24,1.74-3.98,3.07-5.21,1.33-1.23,2.95-1.85,4.85-1.85,2.18,0,3.79.83,4.82,2.5,1.03,1.67,1.55,4.29,1.55,7.86v16.31h5.48v-16.67c0-5-.86-8.73-2.59-11.19-1.73-2.46-4.3-3.69-7.71-3.69Z"/>
        <path class="cls-2" d="M454.84,449.8c-2.22-1.23-4.76-1.85-7.62-1.85s-5.22.6-7.44,1.79c-2.22,1.19-3.99,2.98-5.3,5.36-1.31,2.38-1.96,5.36-1.96,8.93s.63,6.5,1.91,8.9c1.27,2.4,3.03,4.23,5.27,5.48,2.24,1.25,4.81,1.88,7.71,1.88s5.28-.6,7.5-1.79c2.22-1.19,3.98-2.98,5.27-5.36,1.29-2.38,1.94-5.34,1.94-8.87s-.65-6.57-1.96-8.99-3.08-4.25-5.3-5.48ZM455.53,470.52c-.74,1.71-1.78,3.02-3.13,3.93-1.35.91-2.98,1.37-4.88,1.37-2.94,0-5.26-1.05-6.97-3.16-1.71-2.1-2.56-5-2.56-8.69,0-2.42.38-4.47,1.13-6.16.75-1.69,1.82-2.99,3.19-3.9,1.37-.91,2.99-1.37,4.85-1.37s3.63.5,5.06,1.49c1.43.99,2.52,2.37,3.27,4.14.75,1.77,1.13,3.86,1.13,6.28s-.37,4.37-1.1,6.07Z"/>
        <polygon class="cls-2" points="479.43 474.87 478.84 474.87 470.32 448.79 464.37 448.79 475.44 479.51 482.65 479.51 493.78 448.79 487.95 448.79 479.43 474.87"/>
        <path class="cls-2" d="M521.89,470.82c-.04-1.47-.08-2.88-.12-4.23v-6.43c0-2.78-.47-5.07-1.4-6.88-.93-1.81-2.27-3.15-4.02-4.02-1.75-.87-3.87-1.31-6.37-1.31-1.67,0-3.26.2-4.76.6-1.51.4-2.85,1.01-4.02,1.85-1.17.83-2.13,1.88-2.89,3.13-.75,1.25-1.25,2.73-1.49,4.44l5,1.25c.2-1.67.71-2.99,1.55-3.96.83-.97,1.84-1.67,3.01-2.08,1.17-.42,2.33-.62,3.48-.62,2.1,0,3.72.53,4.85,1.58s1.7,2.41,1.7,4.08c0,.79-.2,1.4-.6,1.82-.4.42-1.09.73-2.08.95-.99.22-2.38.47-4.17.75-2.22.28-4.19.67-5.9,1.16-1.71.5-3.14,1.12-4.29,1.88-1.15.75-2.02,1.7-2.62,2.83-.6,1.13-.89,2.49-.89,4.08,0,1.99.4,3.61,1.19,4.88.79,1.27,1.88,2.21,3.25,2.83,1.37.61,2.87.92,4.5.92,2.14,0,4-.44,5.57-1.31,1.57-.87,2.87-2.04,3.9-3.51,1.03-1.47,1.79-3.1,2.26-4.88h.65v8.93h5.06c-.08-1.35-.15-2.77-.21-4.26-.06-1.49-.11-2.97-.15-4.44ZM514.8,470.64c-.71,1.15-1.54,2.12-2.47,2.92-.93.79-1.91,1.38-2.92,1.76s-2.02.57-3.01.57c-1.59,0-2.84-.42-3.75-1.25-.91-.83-1.37-1.98-1.37-3.45,0-1.35.33-2.4.98-3.16.65-.75,1.52-1.34,2.59-1.76s2.25-.73,3.54-.95c1.29-.22,2.57-.43,3.84-.62,1.27-.2,2.42-.46,3.45-.77.28-.08.53-.18.77-.29v2.91c-.4,1.59-.95,2.96-1.67,4.11Z"/>
        <path class="cls-2" d="M539.93,475.1c-1.31,0-2.33-.36-3.07-1.07-.73-.71-1.1-1.87-1.1-3.45v-17.21h8.51v-4.64h-8.51v-6.79h-3.39l-.42,3.93c-.12,1.03-.44,1.8-.95,2.29-.52.5-1.35.77-2.5.8h-2.32v4.35h4.29v17.45c0,3.14.7,5.48,2.11,7.03,1.41,1.55,3.52,2.32,6.34,2.32.83,0,1.71-.08,2.62-.24.91-.16,1.87-.44,2.86-.83v-5.36c-.68.56-1.4.93-2.17,1.13-.77.2-1.54.3-2.29.3Z"/>
        <path class="cls-2" d="M552.85,438.01c-1.15,0-2.04.25-2.68.74-.64.5-.95,1.24-.95,2.23s.31,1.75.92,2.26c.62.52,1.54.77,2.77.77s2.09-.26,2.71-.77c.61-.51.92-1.27.92-2.26s-.31-1.74-.92-2.23c-.62-.5-1.54-.74-2.77-.74Z"/>
        <rect class="cls-2" x="550.17" y="448.73" width="5.42" height="30.78"/>
        <path class="cls-2" d="M579.46,447.95c-2.06,0-3.85.46-5.36,1.37-1.51.91-2.72,2.29-3.63,4.14-.91,1.85-1.59,4.2-2.02,7.06h-.77l.66-11.79h-4.94l.06,13.58v17.21h5.42v-11.73c.04-3.02.42-5.65,1.13-7.89.71-2.24,1.74-3.98,3.07-5.21,1.33-1.23,2.95-1.85,4.85-1.85,2.18,0,3.79.83,4.82,2.5,1.03,1.67,1.55,4.29,1.55,7.86v16.31h5.48v-16.67c0-5-.86-8.73-2.59-11.19-1.73-2.46-4.3-3.69-7.71-3.69Z"/>
        <path class="cls-2" d="M620.96,473.62c-1.23-.48-2.45-.78-3.66-.92-1.21-.14-2.17-.21-2.89-.21h-7.98c-.71,0-1.46-.03-2.23-.09-.77-.06-1.41-.2-1.9-.42-.5-.22-.74-.53-.74-.92s.31-.86.92-1.4,1.58-1.12,2.89-1.76c.87.16,1.61.27,2.2.33s1.21.09,1.85.09c2.74,0,5.05-.36,6.94-1.07,1.89-.71,3.32-1.73,4.32-3.04.99-1.31,1.49-2.8,1.49-4.47,0-1.79-.6-3.27-1.79-4.46-1.19-1.19-3.02-2.02-5.48-2.5v-.89l9.82,1.43v-4.64h-14.89c-2.74,0-5.12.41-7.14,1.22s-3.58,1.96-4.67,3.45-1.64,3.23-1.64,5.21c0,2.18.65,4.01,1.94,5.48,1.29,1.47,3.17,2.28,5.63,2.44v.89c-2.46.56-4.23,1.21-5.3,1.96s-1.61,1.65-1.61,2.68.54,1.87,1.61,2.38c1.07.52,2.72.77,4.94.77v.83c-2.9.48-5.05,1.29-6.46,2.44-1.41,1.15-2.12,2.6-2.12,4.35,0,1.39.46,2.57,1.37,3.54.91.97,2.38,1.72,4.41,2.23,2.03.51,4.72.77,8.1.77,3.61,0,6.63-.32,9.05-.95,2.42-.64,4.26-1.62,5.51-2.95,1.25-1.33,1.88-3.05,1.88-5.15,0-1.87-.42-3.32-1.25-4.38-.83-1.05-1.87-1.82-3.1-2.29ZM602.71,461.86c-.62-.89-.92-1.94-.92-3.13,0-1.79.66-3.25,1.99-4.41,1.33-1.15,3.19-1.73,5.57-1.73s4.29.59,5.6,1.76,1.96,2.69,1.96,4.55-.63,3.21-1.9,4.26c-1.27,1.05-3.1,1.58-5.48,1.58-1.59,0-2.97-.26-4.14-.77-1.17-.51-2.06-1.22-2.68-2.11ZM619.18,482.7c-.76.69-1.98,1.21-3.66,1.55-1.69.34-3.94.51-6.76.51-1.63,0-3.11-.09-4.44-.27s-2.37-.53-3.12-1.04c-.75-.52-1.13-1.31-1.13-2.38,0-.99.42-1.88,1.25-2.68s2.34-1.49,4.53-2.08h7.26c.63,0,1.36.02,2.17.06.81.04,1.61.17,2.38.39.77.22,1.41.6,1.91,1.13.5.54.74,1.3.74,2.29s-.38,1.83-1.13,2.53Z"/>
        <rect class="cls-2" x="645.38" y="440.21" width="5.54" height="39.3"/>
        <path class="cls-2" d="M675.15,447.95c-2.06,0-3.85.46-5.36,1.37-1.51.91-2.72,2.29-3.63,4.14-.91,1.85-1.59,4.2-2.02,7.06h-.77l.66-11.79h-4.94l.06,13.58v17.21h5.42v-11.73c.04-3.02.42-5.65,1.13-7.89.71-2.24,1.74-3.98,3.07-5.21,1.33-1.23,2.95-1.85,4.85-1.85,2.18,0,3.79.83,4.82,2.5,1.03,1.67,1.55,4.29,1.55,7.86v16.31h5.48v-16.67c0-5-.86-8.73-2.59-11.19-1.73-2.46-4.3-3.69-7.71-3.69Z"/>
        <path class="cls-2" d="M703.37,475.1c-1.31,0-2.33-.36-3.07-1.07-.74-.71-1.1-1.87-1.1-3.45v-17.21h8.51v-4.64h-8.51v-6.79h-3.39l-.42,3.93c-.12,1.03-.44,1.8-.95,2.29-.52.5-1.35.77-2.5.8h-2.32v4.35h4.29v17.45c0,3.14.71,5.48,2.11,7.03,1.41,1.55,3.52,2.32,6.34,2.32.83,0,1.71-.08,2.62-.24.91-.16,1.87-.44,2.86-.83v-5.36c-.68.56-1.4.93-2.17,1.13-.77.2-1.54.3-2.29.3Z"/>
        <path class="cls-2" d="M733.71,471.59c-.34.79-.82,1.51-1.46,2.14-.64.63-1.44,1.14-2.41,1.52s-2.15.57-3.54.57c-3.14,0-5.53-.97-7.17-2.92-1.61-1.89-2.42-4.62-2.46-8.18l22.02-.22c.16-2.7-.04-5.08-.6-7.14-.56-2.06-1.41-3.79-2.56-5.18-1.15-1.39-2.55-2.44-4.2-3.16-1.65-.71-3.52-1.07-5.63-1.07-2.34,0-4.41.42-6.19,1.25-1.79.83-3.29,2.01-4.5,3.51-1.21,1.51-2.12,3.27-2.74,5.3-.62,2.02-.92,4.21-.92,6.55s.32,4.54.95,6.46,1.58,3.57,2.83,4.94c1.25,1.37,2.8,2.43,4.64,3.19s3.98,1.13,6.4,1.13c1.94,0,3.68-.25,5.21-.75,1.53-.5,2.84-1.19,3.93-2.08,1.09-.89,1.97-1.97,2.65-3.24.67-1.27,1.11-2.68,1.31-4.23l-4.88-.77c-.12.79-.35,1.59-.68,2.38ZM720.82,454.03c1.35-.95,2.98-1.43,4.88-1.43,1.75,0,3.22.41,4.44,1.22s2.12,2,2.74,3.57c.39.99.61,2.15.69,3.44l-16.64.19c.18-1.04.44-2.01.8-2.89.71-1.79,1.75-3.16,3.1-4.11Z"/>
        <rect class="cls-2" x="745.29" y="438.31" width="5.36" height="41.2"/>
        <rect class="cls-2" x="758.51" y="438.31" width="5.36" height="41.2"/>
        <rect class="cls-2" x="771.73" y="448.73" width="5.42" height="30.78"/>
        <path class="cls-2" d="M774.41,438.01c-1.15,0-2.04.25-2.68.74-.64.5-.95,1.24-.95,2.23s.31,1.75.92,2.26c.61.52,1.54.77,2.77.77s2.09-.26,2.71-.77c.62-.51.92-1.27.92-2.26s-.31-1.74-.92-2.23c-.62-.5-1.54-.74-2.77-.74Z"/>
        <path class="cls-2" d="M808.82,473.62c-1.23-.48-2.45-.78-3.66-.92-1.21-.14-2.17-.21-2.89-.21h-7.98c-.71,0-1.46-.03-2.23-.09-.77-.06-1.41-.2-1.91-.42-.5-.22-.74-.53-.74-.92s.31-.86.92-1.4c.62-.54,1.58-1.12,2.89-1.76.87.16,1.61.27,2.2.33s1.21.09,1.85.09c2.74,0,5.05-.36,6.94-1.07s3.32-1.73,4.32-3.04c.99-1.31,1.49-2.8,1.49-4.47,0-1.79-.6-3.27-1.79-4.46-1.19-1.19-3.02-2.02-5.48-2.5v-.89l9.82,1.43v-4.64h-14.89c-2.74,0-5.12.41-7.15,1.22-2.02.81-3.58,1.96-4.67,3.45s-1.64,3.23-1.64,5.21c0,2.18.65,4.01,1.94,5.48,1.29,1.47,3.17,2.28,5.63,2.44v.89c-2.46.56-4.23,1.21-5.3,1.96-1.07.75-1.61,1.65-1.61,2.68s.54,1.87,1.61,2.38c1.07.52,2.72.77,4.94.77v.83c-2.9.48-5.05,1.29-6.46,2.44-1.41,1.15-2.11,2.6-2.11,4.35,0,1.39.46,2.57,1.37,3.54s2.38,1.72,4.41,2.23c2.02.51,4.72.77,8.1.77,3.61,0,6.63-.32,9.05-.95,2.42-.64,4.26-1.62,5.51-2.95,1.25-1.33,1.88-3.05,1.88-5.15,0-1.87-.42-3.32-1.25-4.38-.83-1.05-1.87-1.82-3.1-2.29ZM790.57,461.86c-.62-.89-.92-1.94-.92-3.13,0-1.79.66-3.25,1.99-4.41,1.33-1.15,3.19-1.73,5.57-1.73s4.29.59,5.6,1.76c1.31,1.17,1.96,2.69,1.96,4.55s-.64,3.21-1.91,4.26c-1.27,1.05-3.1,1.58-5.48,1.58-1.59,0-2.97-.26-4.14-.77-1.17-.51-2.06-1.22-2.68-2.11ZM807.04,482.7c-.75.69-1.98,1.21-3.66,1.55-1.69.34-3.94.51-6.76.51-1.63,0-3.11-.09-4.44-.27s-2.37-.53-3.13-1.04c-.75-.52-1.13-1.31-1.13-2.38,0-.99.42-1.88,1.25-2.68.83-.79,2.34-1.49,4.53-2.08h7.26c.63,0,1.36.02,2.17.06.81.04,1.61.17,2.38.39.77.22,1.41.6,1.91,1.13.5.54.74,1.3.74,2.29s-.38,1.83-1.13,2.53Z"/>
        <path class="cls-2" d="M838.74,471.59c-.34.79-.82,1.51-1.46,2.14-.64.63-1.44,1.14-2.41,1.52s-2.15.57-3.54.57c-3.14,0-5.53-.97-7.17-2.92-1.61-1.89-2.42-4.62-2.46-8.18l22.02-.22c.16-2.7-.04-5.08-.6-7.14-.56-2.06-1.41-3.79-2.56-5.18-1.15-1.39-2.55-2.44-4.2-3.16-1.65-.71-3.52-1.07-5.63-1.07-2.34,0-4.41.42-6.19,1.25-1.79.83-3.29,2.01-4.5,3.51-1.21,1.51-2.12,3.27-2.74,5.3-.62,2.02-.92,4.21-.92,6.55s.32,4.54.95,6.46,1.58,3.57,2.83,4.94c1.25,1.37,2.8,2.43,4.64,3.19s3.98,1.13,6.4,1.13c1.94,0,3.68-.25,5.21-.75,1.53-.5,2.84-1.19,3.93-2.08,1.09-.89,1.97-1.97,2.65-3.24.67-1.27,1.11-2.68,1.31-4.23l-4.88-.77c-.12.79-.35,1.59-.68,2.38ZM825.85,454.03c1.35-.95,2.98-1.43,4.88-1.43,1.75,0,3.22.41,4.44,1.22s2.12,2,2.74,3.57c.39.99.61,2.15.69,3.44l-16.64.19c.18-1.04.44-2.01.8-2.89.71-1.79,1.75-3.16,3.1-4.11Z"/>
        <path class="cls-2" d="M866.34,447.95c-2.06,0-3.85.46-5.36,1.37-1.51.91-2.72,2.29-3.63,4.14-.91,1.85-1.59,4.2-2.02,7.06h-.77l.66-11.79h-4.94l.06,13.58v17.21h5.42v-11.73c.04-3.02.42-5.65,1.13-7.89.71-2.24,1.74-3.98,3.07-5.21,1.33-1.23,2.95-1.85,4.85-1.85,2.18,0,3.79.83,4.82,2.5,1.03,1.67,1.55,4.29,1.55,7.86v16.31h5.48v-16.67c0-5-.86-8.73-2.59-11.19-1.73-2.46-4.3-3.69-7.71-3.69Z"/>
        <path class="cls-2" d="M904.54,472.07c-.62,1.15-1.5,2.05-2.65,2.71-1.15.65-2.6.98-4.35.98-1.99,0-3.67-.45-5.06-1.34-1.39-.89-2.45-2.19-3.19-3.9-.74-1.71-1.1-3.81-1.1-6.31,0-1.87.21-3.52.62-4.97.42-1.45,1.02-2.67,1.82-3.66.79-.99,1.74-1.74,2.83-2.23,1.09-.5,2.29-.74,3.6-.74,1.59,0,2.93.31,4.02.92,1.09.62,1.95,1.46,2.56,2.53.62,1.07.94,2.26.98,3.57l5.06-1.07c-.16-2.02-.74-3.83-1.76-5.42-1.01-1.59-2.43-2.85-4.26-3.78-1.83-.93-4.01-1.4-6.55-1.4-2.38,0-4.48.42-6.28,1.25-1.81.83-3.31,2.01-4.52,3.51-1.21,1.51-2.12,3.25-2.74,5.24-.62,1.99-.92,4.13-.92,6.43,0,2.18.3,4.24.89,6.16.6,1.93,1.49,3.61,2.68,5.06,1.19,1.45,2.72,2.59,4.58,3.42,1.87.83,4.07,1.25,6.61,1.25,1.98,0,3.75-.26,5.3-.77s2.89-1.26,4.02-2.23c1.13-.97,2.02-2.15,2.68-3.54.66-1.39,1.06-2.98,1.22-4.76l-5.06-.83c-.08,1.47-.43,2.78-1.04,3.93Z"/>
        <path class="cls-2" d="M936.93,471.59c-.34.79-.82,1.51-1.46,2.14-.64.63-1.44,1.14-2.41,1.52s-2.15.57-3.54.57c-3.14,0-5.53-.97-7.17-2.92-1.61-1.89-2.42-4.62-2.46-8.18l22.02-.22c.16-2.7-.04-5.08-.6-7.14-.56-2.06-1.41-3.79-2.56-5.18-1.15-1.39-2.55-2.44-4.2-3.16-1.65-.71-3.52-1.07-5.63-1.07-2.34,0-4.41.42-6.19,1.25-1.79.83-3.29,2.01-4.5,3.51-1.21,1.51-2.12,3.27-2.74,5.3-.62,2.02-.92,4.21-.92,6.55s.32,4.54.95,6.46,1.58,3.57,2.83,4.94c1.25,1.37,2.8,2.43,4.64,3.19s3.98,1.13,6.4,1.13c1.94,0,3.68-.25,5.21-.75,1.53-.5,2.84-1.19,3.93-2.08,1.09-.89,1.97-1.97,2.65-3.24.67-1.27,1.11-2.68,1.31-4.23l-4.88-.77c-.12.79-.35,1.59-.68,2.38ZM924.04,454.03c1.35-.95,2.98-1.43,4.88-1.43,1.75,0,3.22.41,4.44,1.22s2.12,2,2.74,3.57c.39.99.61,2.15.69,3.44l-16.64.19c.18-1.04.44-2.01.8-2.89.71-1.79,1.75-3.16,3.1-4.11Z"/>
        <path class="cls-2" d="M973.46,475.1c-1.31,0-2.33-.36-3.07-1.07-.74-.71-1.1-1.87-1.1-3.45v-17.21h8.51v-4.64h-8.51v-6.79h-3.39l-.42,3.93c-.12,1.03-.44,1.8-.95,2.29-.52.5-1.35.77-2.5.8h-2.32v4.35h4.29v17.45c0,3.14.71,5.48,2.11,7.03,1.41,1.55,3.52,2.32,6.34,2.32.83,0,1.71-.08,2.62-.24.91-.16,1.87-.44,2.86-.83v-5.36c-.68.56-1.4.93-2.17,1.13-.77.2-1.54.3-2.29.3Z"/>
        <path class="cls-2" d="M1003.64,449.8c-2.22-1.23-4.76-1.85-7.62-1.85s-5.22.6-7.44,1.79c-2.22,1.19-3.99,2.98-5.3,5.36-1.31,2.38-1.96,5.36-1.96,8.93s.63,6.5,1.91,8.9c1.27,2.4,3.03,4.23,5.27,5.48,2.24,1.25,4.81,1.88,7.71,1.88s5.28-.6,7.5-1.79c2.22-1.19,3.98-2.98,5.27-5.36,1.29-2.38,1.94-5.34,1.94-8.87s-.66-6.57-1.96-8.99c-1.31-2.42-3.08-4.25-5.3-5.48ZM1004.33,470.52c-.73,1.71-1.78,3.02-3.13,3.93-1.35.91-2.98,1.37-4.88,1.37-2.94,0-5.26-1.05-6.97-3.16-1.71-2.1-2.56-5-2.56-8.69,0-2.42.38-4.47,1.13-6.16.75-1.69,1.82-2.99,3.19-3.9,1.37-.91,2.99-1.37,4.85-1.37s3.63.5,5.06,1.49c1.43.99,2.52,2.37,3.28,4.14.75,1.77,1.13,3.86,1.13,6.28s-.37,4.37-1.1,6.07Z"/>
        <path class="cls-2" d="M1040.98,473.62c-1.23-.48-2.45-.78-3.66-.92-1.21-.14-2.17-.21-2.89-.21h-7.98c-.71,0-1.46-.03-2.23-.09-.77-.06-1.41-.2-1.91-.42-.5-.22-.74-.53-.74-.92s.31-.86.92-1.4c.62-.54,1.58-1.12,2.89-1.76.87.16,1.61.27,2.2.33s1.21.09,1.85.09c2.74,0,5.05-.36,6.94-1.07s3.32-1.73,4.32-3.04c.99-1.31,1.49-2.8,1.49-4.47,0-1.79-.6-3.27-1.79-4.46-1.19-1.19-3.02-2.02-5.48-2.5v-.89l9.82,1.43v-4.64h-14.89c-2.74,0-5.12.41-7.15,1.22-2.02.81-3.58,1.96-4.67,3.45s-1.64,3.23-1.64,5.21c0,2.18.65,4.01,1.94,5.48,1.29,1.47,3.17,2.28,5.63,2.44v.89c-2.46.56-4.23,1.21-5.3,1.96-1.07.75-1.61,1.65-1.61,2.68s.54,1.87,1.61,2.38c1.07.52,2.72.77,4.94.77v.83c-2.9.48-5.05,1.29-6.46,2.44-1.41,1.15-2.11,2.6-2.11,4.35,0,1.39.46,2.57,1.37,3.54s2.38,1.72,4.41,2.23c2.02.51,4.72.77,8.1.77,3.61,0,6.63-.32,9.05-.95,2.42-.64,4.26-1.62,5.51-2.95,1.25-1.33,1.88-3.05,1.88-5.15,0-1.87-.42-3.32-1.25-4.38-.83-1.05-1.87-1.82-3.1-2.29ZM1022.73,461.86c-.62-.89-.92-1.94-.92-3.13,0-1.79.66-3.25,1.99-4.41,1.33-1.15,3.19-1.73,5.57-1.73s4.29.59,5.6,1.76c1.31,1.17,1.96,2.69,1.96,4.55s-.64,3.21-1.91,4.26c-1.27,1.05-3.1,1.58-5.48,1.58-1.59,0-2.97-.26-4.14-.77-1.17-.51-2.06-1.22-2.68-2.11ZM1039.19,482.7c-.75.69-1.98,1.21-3.66,1.55-1.69.34-3.94.51-6.76.51-1.63,0-3.11-.09-4.44-.27s-2.37-.53-3.13-1.04c-.75-.52-1.13-1.31-1.13-2.38,0-.99.42-1.88,1.25-2.68.83-.79,2.34-1.49,4.53-2.08h7.26c.63,0,1.36.02,2.17.06.81.04,1.61.17,2.38.39.77.22,1.41.6,1.91,1.13.5.54.74,1.3.74,2.29s-.38,1.83-1.13,2.53Z"/>
        <path class="cls-2" d="M1070.9,471.59c-.34.79-.82,1.51-1.46,2.14-.64.63-1.44,1.14-2.41,1.52s-2.15.57-3.54.57c-3.14,0-5.53-.97-7.17-2.92-1.61-1.89-2.42-4.62-2.46-8.18l22.02-.22c.16-2.7-.04-5.08-.6-7.14-.56-2.06-1.41-3.79-2.56-5.18-1.15-1.39-2.55-2.44-4.2-3.16-1.65-.71-3.52-1.07-5.63-1.07-2.34,0-4.41.42-6.19,1.25-1.79.83-3.29,2.01-4.5,3.51-1.21,1.51-2.12,3.27-2.74,5.3-.62,2.02-.92,4.21-.92,6.55s.32,4.54.95,6.46,1.58,3.57,2.83,4.94c1.25,1.37,2.8,2.43,4.64,3.19s3.98,1.13,6.4,1.13c1.94,0,3.68-.25,5.21-.75,1.53-.5,2.84-1.19,3.93-2.08,1.09-.89,1.97-1.97,2.65-3.24.67-1.27,1.11-2.68,1.31-4.23l-4.88-.77c-.12.79-.35,1.59-.68,2.38ZM1058.01,454.03c1.35-.95,2.98-1.43,4.88-1.43,1.75,0,3.22.41,4.44,1.22s2.12,2,2.74,3.57c.39.99.61,2.15.69,3.44l-16.64.19c.18-1.04.44-2.01.8-2.89.71-1.79,1.75-3.16,3.1-4.11Z"/>
        <path class="cls-2" d="M1093.08,475.1c-1.31,0-2.33-.36-3.07-1.07-.74-.71-1.1-1.87-1.1-3.45v-17.21h8.51v-4.64h-8.51v-6.79h-3.39l-.42,3.93c-.12,1.03-.44,1.8-.95,2.29-.52.5-1.35.77-2.5.8h-2.32v4.35h4.29v17.45c0,3.14.71,5.48,2.11,7.03,1.41,1.55,3.52,2.32,6.34,2.32.83,0,1.71-.08,2.62-.24.91-.16,1.87-.44,2.86-.83v-5.36c-.68.56-1.4.93-2.17,1.13-.77.2-1.54.3-2.29.3Z"/>
        <path class="cls-2" d="M1119.46,447.95c-2.02,0-3.78.45-5.27,1.34-1.49.89-2.7,2.27-3.63,4.14-.93,1.87-1.64,4.25-2.11,7.15h-.83c.12-1.19.26-2.4.42-3.63.16-1.23.3-2.42.42-3.57.12-1.15.21-2.24.27-3.27.06-1.03.09-1.94.09-2.74v-9.05h-5.54l.06,24.71v16.49h5.42v-12.33c.12-2.9.54-5.42,1.28-7.56.73-2.14,1.76-3.81,3.07-5,1.31-1.19,2.92-1.79,4.82-1.79,2.06,0,3.62.8,4.67,2.41s1.58,4.2,1.58,7.77v16.49h5.48v-16.97c0-4.84-.84-8.48-2.53-10.93-1.69-2.44-4.24-3.66-7.65-3.66Z"/>
        <path class="cls-2" d="M1158.01,471.59c-.34.79-.82,1.51-1.46,2.14-.64.63-1.44,1.14-2.41,1.52s-2.15.57-3.54.57c-3.14,0-5.53-.97-7.17-2.92-1.61-1.89-2.42-4.62-2.46-8.18l22.02-.22c.16-2.7-.04-5.08-.6-7.14-.56-2.06-1.41-3.79-2.56-5.18-1.15-1.39-2.55-2.44-4.2-3.16-1.65-.71-3.52-1.07-5.63-1.07-2.34,0-4.41.42-6.19,1.25-1.79.83-3.29,2.01-4.5,3.51-1.21,1.51-2.12,3.27-2.74,5.3-.62,2.02-.92,4.21-.92,6.55s.32,4.54.95,6.46,1.58,3.57,2.83,4.94c1.25,1.37,2.8,2.43,4.64,3.19s3.98,1.13,6.4,1.13c1.94,0,3.68-.25,5.21-.75,1.53-.5,2.84-1.19,3.93-2.08,1.09-.89,1.97-1.97,2.65-3.24.67-1.27,1.11-2.68,1.31-4.23l-4.88-.77c-.12.79-.35,1.59-.68,2.38ZM1145.12,454.03c1.35-.95,2.98-1.43,4.88-1.43,1.75,0,3.22.41,4.44,1.22s2.12,2,2.74,3.57c.39.99.61,2.15.69,3.44l-16.64.19c.18-1.04.44-2.01.8-2.89.71-1.79,1.75-3.16,3.1-4.11Z"/>
        <path class="cls-2" d="M1185.31,448.16c-.56-.1-1.07-.15-1.55-.15-1.75,0-3.25.5-4.5,1.49-1.25.99-2.25,2.45-3.01,4.38-.75,1.93-1.29,4.28-1.61,7.06h-.83l.66-12.21h-4.94l.06,15v15.78h5.42v-12.92c.28-2.58.76-4.84,1.46-6.79.69-1.94,1.61-3.45,2.74-4.52,1.13-1.07,2.49-1.61,4.08-1.61.51,0,1.08.05,1.7.15.62.1,1.22.29,1.82.57l.36-5.72c-.68-.24-1.29-.41-1.85-.51Z"/>
      </g>
    </g>
  </g>
</svg>