<?xml version="1.0" encoding="UTF-8"?>
<svg id="Layer_2" data-name="Layer 2" xmlns="http://www.w3.org/2000/svg" viewBox="0 0 593.3 223.61">
  <defs>
    <style>
      .cls-1 {
        fill: #fff;
      }

      .cls-2 {
        fill: #fd4d1b;
      }
    </style>
  </defs>
  <g id="Layer_1-2" data-name="Layer 1">
    <g>
      <path class="cls-1" d="M593.3,170.15c0,8.8-2.74,17.02-7.9,23.75-4.67,6.09-11.18,10.75-18.79,13.5-5.71,2.06-12.06,3.09-18.86,3.09-2.68,0-5.29-.15-7.82-.48-5.31,5.4-12.12,9.22-20.35,11.37-5.79,1.5-12.21,2.23-19.66,2.23-7.05,0-12.96-.63-18.12-1.92-8.04-2.03-14.64-5.75-19.6-11.03-.48-.51-.92-1.02-1.36-1.54-.07-.01-.12-.01-.19-.03-3.52.93-7.22,1.4-11.07,1.4-7.85,0-15.05-1.9-21.21-5.51-.76.33-1.5.66-2.27.95-6.23,2.34-13.2,3.48-21.32,3.48h-22.19c-9.5,0-17.87-4.83-22.82-12.15-4.93,7.33-13.31,12.15-22.82,12.15h-7.64c-4.11,0-8-.93-11.51-2.56-5.94,2.42-12.3,3.64-19,3.64-8.88,0-17.1-2.1-24.44-6.25-3.18-1.8-6.1-3.99-8.76-6.49-4.98,7.05-13.17,11.66-22.45,11.66h-7.73c-6.76,0-12.95-2.45-17.73-6.5-2.89,4.81-7.67,10.34-15.26,13.31-3.52,1.37-7.3,2.02-11.12,2.02-10.48,0-21.23-4.89-27.62-13.06-11.35,6.75-24.14,10.83-37.36,11.81-4,.29-7.95-.3-11.62-1.68-3.68,1.36-7.63,1.97-11.63,1.68-13.22-.98-26.01-5.06-37.36-11.81-6.42,8.17-17.17,13.06-27.63,13.06-3.79,0-7.56-.63-11.05-2.01-12.03-4.72-17.03-15.77-18.63-20.3-3.18-9.03-2.5-18.24,1.9-25.91l4.14-7.22c-7.41-5.69-12.45-14.23-13.54-22.37-1.18-8.81,1.77-18.12,8.11-25.54.73-.85,1.48-1.68,2.28-2.43l-7.52-13.33c-4.65-8.28-5.02-18.46-1.02-27.97,3.9-9.33,11.29-16.08,20.26-18.54,5.28-1.46,12.65-1.83,19.8.14-5.43-6.87-7.55-15.89-5.84-25.27,2.03-11.16,8.84-20.36,18.2-24.59,12.81-5.76,27.92-2.68,38.55,7.84l6.61,6.54c.88-.11,1.79-.19,2.74-.26,4-.29,7.96.32,11.64,1.69,3.67-1.37,7.63-1.98,11.63-1.69.95.07,1.86.15,2.74.26l6.58-6.52c10.65-10.54,25.76-13.62,38.52-7.89,9.4,4.26,16.22,13.44,18.26,24.62,1.7,9.38-.41,18.39-5.83,25.25,7.09-1.95,14.42-1.58,19.69-.15.55.15,1.1.32,1.64.49v-15.37c0-15.19,12.3-27.49,27.49-27.49h7.73c5.28,0,10.2,1.48,14.38,4.06,4.18-2.57,9.1-4.06,14.37-4.06h7.74c9.54,0,17.94,4.87,22.87,12.25,2.56.32,5,.95,7.3,1.92,3.27-1.39,6.89-2.16,10.67-2.16h7.64c4.21,0,8.17.98,11.73,2.65,5.51-1.87,11.59-2.82,18.12-2.82h20.84c3,0,5.87.49,8.56,1.37,4.91-1.51,10.23-2.3,15.89-2.3,7.11,0,13.72,1.25,19.63,3.71,7.2,3.01,13.36,7.88,17.8,14.05,4.61,6.45,7.2,14.2,7.52,22.43.1,2.38-.11,4.7-.6,6.93,1.43,4.08,2.14,8.48,2.14,13.14,0,8.8-2.74,17-7.9,23.75-1.42,1.83-3,3.52-4.72,5.09.27.23.54.48.8.73h4.76c3.78,0,7.38.77,10.67,2.14,3.29-1.37,6.89-2.14,10.67-2.14h7.66c4.19,0,8.17.98,11.73,2.65,5.51-1.87,11.59-2.82,18.1-2.82h20.85c2.98,0,5.87.49,8.56,1.37,4.89-1.53,10.21-2.3,15.89-2.3,7.11,0,13.71,1.25,19.62,3.71,7.22,3.01,13.38,7.88,17.82,14.06,4.61,6.43,7.2,14.19,7.52,22.44.08,2.36-.12,4.69-.6,6.91,1.42,4.07,2.13,8.47,2.13,13.14Z"/>
      <g>
        <g>
          <path d="M235.42,93.16v-55.47h7.73v55.47h-7.73ZM239.37,68.29v-6.72h35.8v6.72h-35.8ZM271.9,93.16v-55.47h7.73v55.47h-7.73Z"/>
          <path d="M306.02,94.26c-4.87,0-8.53-1.72-10.97-5.17-2.44-3.45-3.66-8.67-3.66-15.67v-23.7h7.73v23.2c0,4.99.71,8.66,2.14,11.01,1.43,2.35,3.74,3.53,6.93,3.53,1.79,0,3.39-.43,4.79-1.3,1.4-.87,2.63-2.14,3.7-3.82,1.06-1.68,1.9-3.7,2.52-6.05.62-2.35,1.04-5.01,1.26-7.98v-18.57h7.65v43.45h-6.89l.84-15.21h-1.18c-.62,3.75-1.58,6.84-2.9,9.25-1.32,2.41-2.97,4.19-4.96,5.34-1.99,1.15-4.33,1.72-7.02,1.72Z"/>
          <path d="M356.36,107.37c-4.71,0-8.5-.37-11.39-1.09-2.89-.73-4.99-1.79-6.3-3.19-1.32-1.4-1.97-3.11-1.97-5.13,0-2.52.99-4.59,2.98-6.22,1.99-1.63,5.03-2.75,9.12-3.36v-1.35c-3.08,0-5.38-.36-6.89-1.09-1.51-.73-2.27-1.82-2.27-3.28s.76-2.8,2.27-3.87c1.51-1.06,3.98-1.99,7.4-2.77v-1.43c-3.42-.17-6.02-1.26-7.82-3.28-1.79-2.02-2.69-4.59-2.69-7.73,0-2.86.77-5.34,2.31-7.44,1.54-2.1,3.74-3.73,6.6-4.87,2.86-1.15,6.27-1.72,10.25-1.72h20.84v6.56l-13.7-2.02v1.35c3.42.67,5.97,1.84,7.65,3.49,1.68,1.65,2.52,3.77,2.52,6.35,0,2.41-.7,4.51-2.1,6.3-1.4,1.79-3.45,3.19-6.14,4.2-2.69,1.01-6,1.51-9.92,1.51-.84,0-1.68-.04-2.52-.13-.84-.08-1.91-.24-3.19-.46-1.74.9-3.05,1.74-3.95,2.52-.9.79-1.34,1.49-1.34,2.1,0,.56.38,1,1.13,1.3.76.31,1.71.52,2.86.63,1.15.11,2.23.17,3.24.17h10.76c1.06,0,2.45.1,4.16.29,1.71.2,3.43.65,5.17,1.35,1.74.7,3.19,1.79,4.37,3.28,1.18,1.49,1.77,3.57,1.77,6.26,0,2.97-.88,5.39-2.65,7.27-1.77,1.88-4.37,3.26-7.82,4.16-3.45.9-7.69,1.35-12.73,1.35ZM356.36,100.9c3.87,0,6.99-.24,9.37-.71,2.38-.48,4.1-1.21,5.17-2.19,1.06-.98,1.6-2.2,1.6-3.66s-.36-2.49-1.09-3.28c-.73-.78-1.64-1.33-2.73-1.64-1.09-.31-2.21-.5-3.36-.59-1.15-.08-2.14-.13-2.98-.13h-10.09c-3.19.79-5.38,1.76-6.56,2.94-1.18,1.18-1.77,2.49-1.77,3.95s.55,2.65,1.64,3.4c1.09.76,2.58,1.26,4.45,1.51,1.88.25,3.99.38,6.35.38ZM357.37,72.32c3.42,0,6.02-.74,7.82-2.23,1.79-1.48,2.69-3.49,2.69-6.01s-.92-4.79-2.77-6.47c-1.85-1.68-4.51-2.52-7.98-2.52s-6,.83-7.9,2.48c-1.91,1.65-2.86,3.74-2.86,6.26,0,1.68.43,3.15,1.3,4.41.87,1.26,2.13,2.26,3.78,2.98,1.65.73,3.63,1.09,5.93,1.09Z"/>
          <path d="M404.19,94.26c-2.97,0-5.63-.32-7.98-.97-2.35-.64-4.33-1.57-5.93-2.77-1.6-1.2-2.82-2.7-3.66-4.5-.84-1.79-1.26-3.84-1.26-6.14l6.64-1.43c-.11,2.07.34,3.82,1.35,5.25,1.01,1.43,2.47,2.51,4.37,3.24,1.9.73,4.17,1.09,6.81,1.09,3.36,0,5.95-.56,7.77-1.68,1.82-1.12,2.73-2.66,2.73-4.62,0-1.57-.5-2.79-1.51-3.66-1.01-.87-2.41-1.55-4.2-2.06-1.79-.5-3.87-.98-6.22-1.43-2.07-.5-4.12-1.04-6.13-1.6-2.02-.56-3.85-1.29-5.51-2.19-1.65-.9-2.97-2.1-3.95-3.61-.98-1.51-1.47-3.39-1.47-5.63,0-2.63.69-4.92,2.06-6.85,1.37-1.93,3.35-3.43,5.93-4.5,2.58-1.06,5.66-1.6,9.24-1.6s6.48.53,9.04,1.6c2.55,1.06,4.57,2.63,6.05,4.71,1.48,2.07,2.28,4.57,2.4,7.48l-6.72,1.51c0-2.02-.46-3.7-1.39-5.04-.92-1.34-2.23-2.35-3.91-3.03-1.68-.67-3.61-1.01-5.8-1.01-2.97,0-5.31.56-7.02,1.68-1.71,1.12-2.56,2.66-2.56,4.62,0,1.57.52,2.8,1.55,3.7,1.04.9,2.45,1.58,4.24,2.06,1.79.48,3.78.94,5.97,1.39,2.19.45,4.3.94,6.35,1.47,2.04.53,3.88,1.26,5.51,2.19,1.62.92,2.91,2.14,3.87,3.66.95,1.51,1.43,3.45,1.43,5.8,0,2.75-.74,5.08-2.23,7.02-1.49,1.93-3.59,3.39-6.3,4.37-2.72.98-5.9,1.47-9.54,1.47Z"/>
          <path d="M235.42,181.91v-55.47h7.73v55.47h-7.73ZM238.53,133.25v-6.81h34.96v6.81h-34.96ZM238.53,158.38v-6.64h31.26v6.64h-31.26Z"/>
          <path d="M298.79,183c-4.09,0-7.72-.9-10.88-2.69-3.17-1.79-5.65-4.38-7.44-7.77-1.79-3.39-2.69-7.55-2.69-12.48s.92-9.31,2.77-12.65c1.85-3.33,4.34-5.84,7.48-7.52,3.14-1.68,6.67-2.52,10.59-2.52s7.55.87,10.72,2.61c3.16,1.74,5.67,4.32,7.52,7.73,1.85,3.42,2.77,7.65,2.77,12.69s-.91,9.16-2.73,12.52c-1.82,3.36-4.32,5.88-7.48,7.56-3.17,1.68-6.71,2.52-10.63,2.52ZM299.04,176.7c2.63,0,4.92-.64,6.85-1.93,1.93-1.29,3.42-3.14,4.45-5.55,1.04-2.41,1.55-5.27,1.55-8.57,0-3.47-.55-6.46-1.64-8.95-1.09-2.49-2.63-4.43-4.62-5.8-1.99-1.37-4.39-2.06-7.19-2.06-2.63,0-4.92.63-6.85,1.89-1.93,1.26-3.43,3.1-4.5,5.51-1.07,2.41-1.6,5.29-1.6,8.66,0,5.21,1.2,9.32,3.61,12.31,2.41,3,5.71,4.5,9.92,4.5Z"/>
          <path d="M329.3,181.91v-43.45h6.98l-.84,16.47h1.26c.45-3.7,1.2-6.85,2.27-9.46,1.06-2.61,2.48-4.59,4.24-5.97,1.76-1.37,3.91-2.06,6.43-2.06.67,0,1.39.06,2.14.17.76.11,1.58.34,2.48.67l-.42,8.07c-.84-.39-1.68-.66-2.52-.8-.84-.14-1.65-.21-2.44-.21-2.24,0-4.15.74-5.72,2.23-1.57,1.49-2.87,3.53-3.91,6.14-1.04,2.61-1.81,5.62-2.31,9.04v19.16h-7.65Z"/>
          <path d="M382.59,181.91v-55.47h20.09c3.19,0,6.07.29,8.61.88,2.55.59,4.71,1.47,6.47,2.65,1.76,1.18,3.12,2.66,4.08,4.45.95,1.79,1.43,3.92,1.43,6.39,0,2.13-.43,4.03-1.3,5.72-.87,1.68-2.24,3.05-4.12,4.12-1.88,1.07-4.33,1.82-7.35,2.27v.92c5.15.39,8.94,1.75,11.35,4.08,2.41,2.33,3.61,5.45,3.61,9.37,0,3.14-.74,5.79-2.23,7.94-1.49,2.16-3.75,3.81-6.81,4.96-3.05,1.15-6.93,1.72-11.64,1.72h-22.19ZM390.07,150.65h10.17c5.15,0,8.99-.74,11.51-2.23,2.52-1.48,3.78-3.71,3.78-6.68s-1.13-5.17-3.4-6.6c-2.27-1.43-5.73-2.14-10.38-2.14h-11.68v17.65ZM390.07,175.36h15.21c4.2,0,7.34-.71,9.41-2.14,2.07-1.43,3.11-3.63,3.11-6.6,0-3.42-1.39-5.98-4.16-7.69-2.77-1.71-6.96-2.56-12.56-2.56h-11.01v18.99Z"/>
          <path d="M449.57,183c-4.87,0-8.53-1.72-10.97-5.17-2.44-3.45-3.66-8.67-3.66-15.67v-23.7h7.73v23.2c0,4.99.71,8.66,2.14,11.01s3.74,3.53,6.93,3.53c1.79,0,3.39-.43,4.79-1.3,1.4-.87,2.63-2.14,3.7-3.82s1.91-3.7,2.52-6.05c.62-2.35,1.04-5.01,1.26-7.98v-18.57h7.65v43.45h-6.89l.84-15.21h-1.18c-.62,3.75-1.58,6.84-2.9,9.25-1.32,2.41-2.97,4.19-4.96,5.34-1.99,1.15-4.33,1.72-7.02,1.72Z"/>
          <path d="M499.91,196.12c-4.71,0-8.5-.37-11.39-1.09-2.89-.73-4.99-1.79-6.3-3.19-1.32-1.4-1.97-3.11-1.97-5.13,0-2.52.99-4.59,2.98-6.22,1.99-1.63,5.03-2.75,9.12-3.36v-1.35c-3.08,0-5.38-.36-6.89-1.09-1.51-.73-2.27-1.82-2.27-3.28s.76-2.8,2.27-3.87c1.51-1.06,3.98-1.99,7.4-2.77v-1.43c-3.42-.17-6.02-1.26-7.82-3.28-1.79-2.02-2.69-4.59-2.69-7.73,0-2.86.77-5.34,2.31-7.44,1.54-2.1,3.74-3.73,6.6-4.87,2.86-1.15,6.27-1.72,10.25-1.72h20.84v6.56l-13.7-2.02v1.35c3.42.67,5.97,1.84,7.65,3.49,1.68,1.65,2.52,3.77,2.52,6.35,0,2.41-.7,4.51-2.1,6.3-1.4,1.79-3.45,3.19-6.14,4.2-2.69,1.01-6,1.51-9.92,1.51-.84,0-1.68-.04-2.52-.13s-1.91-.24-3.19-.46c-1.74.9-3.05,1.74-3.95,2.52-.9.79-1.35,1.49-1.35,2.1,0,.56.38,1,1.13,1.3.76.31,1.71.52,2.86.63,1.15.11,2.23.17,3.24.17h10.76c1.06,0,2.45.1,4.16.29,1.71.2,3.43.65,5.17,1.35,1.74.7,3.19,1.79,4.37,3.28,1.18,1.49,1.77,3.57,1.77,6.26,0,2.97-.88,5.39-2.65,7.27-1.77,1.88-4.37,3.26-7.82,4.16-3.45.9-7.69,1.35-12.73,1.35ZM499.91,189.64c3.87,0,6.99-.24,9.37-.71,2.38-.48,4.1-1.21,5.17-2.19,1.06-.98,1.6-2.2,1.6-3.66s-.36-2.49-1.09-3.28c-.73-.78-1.64-1.33-2.73-1.64-1.09-.31-2.21-.5-3.36-.59-1.15-.08-2.14-.13-2.98-.13h-10.09c-3.19.79-5.38,1.76-6.56,2.94-1.18,1.18-1.77,2.49-1.77,3.95s.55,2.65,1.64,3.4c1.09.76,2.58,1.26,4.46,1.51,1.88.25,3.99.38,6.35.38ZM500.92,161.07c3.42,0,6.02-.74,7.82-2.23,1.79-1.48,2.69-3.49,2.69-6.01s-.92-4.79-2.77-6.47c-1.85-1.68-4.51-2.52-7.98-2.52s-6,.83-7.9,2.48c-1.91,1.65-2.86,3.74-2.86,6.26,0,1.68.43,3.15,1.3,4.41.87,1.26,2.13,2.26,3.78,2.98,1.65.73,3.63,1.09,5.93,1.09Z"/>
          <path d="M547.74,183c-2.97,0-5.63-.32-7.98-.97-2.35-.64-4.33-1.57-5.92-2.77-1.6-1.2-2.82-2.7-3.66-4.5-.84-1.79-1.26-3.84-1.26-6.14l6.64-1.43c-.11,2.07.34,3.82,1.35,5.25,1.01,1.43,2.47,2.51,4.37,3.24,1.9.73,4.17,1.09,6.81,1.09,3.36,0,5.95-.56,7.77-1.68,1.82-1.12,2.73-2.66,2.73-4.62,0-1.57-.5-2.79-1.51-3.66-1.01-.87-2.41-1.55-4.2-2.06-1.79-.5-3.87-.98-6.22-1.43-2.07-.5-4.12-1.04-6.14-1.6-2.02-.56-3.85-1.29-5.5-2.19-1.65-.9-2.97-2.1-3.95-3.61-.98-1.51-1.47-3.39-1.47-5.63,0-2.63.69-4.92,2.06-6.85,1.37-1.93,3.35-3.43,5.93-4.5,2.58-1.06,5.66-1.6,9.24-1.6s6.48.53,9.04,1.6c2.55,1.06,4.57,2.63,6.05,4.71,1.48,2.07,2.28,4.57,2.4,7.48l-6.72,1.51c0-2.02-.46-3.7-1.39-5.04-.92-1.34-2.23-2.35-3.91-3.03-1.68-.67-3.61-1.01-5.8-1.01-2.97,0-5.31.56-7.02,1.68-1.71,1.12-2.56,2.66-2.56,4.62,0,1.57.52,2.8,1.55,3.7,1.04.9,2.45,1.58,4.24,2.06,1.79.48,3.78.94,5.97,1.39,2.18.45,4.3.94,6.35,1.47,2.04.53,3.88,1.26,5.51,2.19,1.62.92,2.91,2.14,3.87,3.66.95,1.51,1.43,3.45,1.43,5.8,0,2.75-.74,5.08-2.23,7.02-1.49,1.93-3.59,3.39-6.3,4.37-2.72.98-5.9,1.47-9.54,1.47Z"/>
        </g>
        <g>
          <path class="cls-2" d="M189.47,107.27l-12.75.6c1.99,6.18,3.06,12.81,3.06,19.69,0,1.01-.03,2.01-.07,3.01l17.16.48c1.99.05,4.62,3.95,4.38,5.73-.24,1.77-3.22,5.18-5.09,5.2l-18.06.23c-1.68,7.23-4.58,13.96-8.45,19.96,5.02.38,12.55-1.23,13.93,1.18l11.67,20.34c.94,1.64-1.27,6.3-2.86,6.93-1.87.73-6.11-.73-7.15-2.53l-8.52-14.69c-6.74-.95-11.6-1.23-15.3-1.03-9.77,9.77-22.75,16.14-37.14,17.2v-124.01c.07,0,.13,0,.19.01l-.04-6.08-.09-12.03-.03-3.05c4.87.36,7.77,1.28,12.25,3.43.15.08.3.15.46.23l17.97-17.81c2.17-2.15,5.24-3.52,7.89-2.33,1.93.87,3.56,6.34,1.97,7.93l-18.99,18.95c2.56,2.5,4.77,5.2,6.49,8.22,2.52,4.36,4.04,9.36,4.2,15.35,1.39,1.13,2.74,2.32,4.04,3.58,4.4,4.22,8.17,9.12,11.18,14.55l10.95.2,9.58-16.57c.83-1.46,5.35-1.44,6.78-1.05,1.71.46,3.48,4.91,2.58,6.52l-12.21,21.65Z"/>
          <path class="cls-2" d="M39.94,107.27l12.75.6c-1.99,6.18-3.06,12.81-3.06,19.69,0,1.01.03,2.01.07,3.01l-17.16.48c-1.99.05-4.62,3.95-4.38,5.73.24,1.77,3.22,5.18,5.09,5.2l18.06.23c1.68,7.23,4.58,13.96,8.45,19.96-5.02.38-12.55-1.23-13.93,1.18l-11.67,20.34c-.94,1.64,1.27,6.3,2.86,6.93,1.87.73,6.11-.73,7.15-2.53l8.52-14.69c6.74-.95,11.6-1.23,15.3-1.03,9.77,9.77,22.75,16.14,37.14,17.2v-124.01c-.07,0-.13,0-.19.01l.04-6.08.09-12.03.03-3.05c-4.87.36-7.77,1.28-12.25,3.43-.15.08-.3.15-.46.23l-17.97-17.81c-2.17-2.15-5.24-3.52-7.89-2.33-1.93.87-3.56,6.34-1.97,7.93l18.99,18.95c-2.56,2.5-4.77,5.2-6.49,8.22-2.52,4.36-4.04,9.36-4.2,15.35-1.39,1.13-2.74,2.32-4.04,3.58-4.4,4.22-8.17,9.12-11.18,14.55l-10.95.2-9.58-16.57c-.83-1.46-5.35-1.44-6.78-1.05-1.71.46-3.48,4.91-2.58,6.52l12.21,21.65Z"/>
        </g>
      </g>
    </g>
  </g>
</svg>