<?xml version="1.0" encoding="UTF-8"?>
<svg id="Layer_2" data-name="Layer 2" xmlns="http://www.w3.org/2000/svg" viewBox="0 0 284.68 89.17">
  <defs>
    <style>
      .cls-1 {
        fill: #fd4d1b;
      }
    </style>
  </defs>
  <g id="Layer_1-2" data-name="Layer 1">
    <g>
      <g>
        <path d="M109.96,34.73V5.4h4.09v29.33h-4.09ZM112.05,21.58v-3.56h18.93v3.56h-18.93ZM129.25,34.73V5.4h4.09v29.33h-4.09Z"/>
        <path d="M147.3,35.31c-2.58,0-4.51-.91-5.8-2.73-1.29-1.82-1.93-4.58-1.93-8.29v-12.53h4.09v12.27c0,2.64.38,4.58,1.13,5.82.76,1.24,1.98,1.87,3.67,1.87.95,0,1.79-.23,2.53-.69.74-.46,1.39-1.13,1.96-2.02.56-.89,1.01-1.96,1.33-3.2.33-1.24.55-2.65.67-4.22v-9.82h4.04v22.98h-3.64l.44-8.04h-.62c-.33,1.99-.84,3.62-1.53,4.89-.7,1.27-1.57,2.22-2.62,2.82-1.05.61-2.29.91-3.71.91Z"/>
        <path d="M173.92,42.24c-2.49,0-4.5-.19-6.02-.58-1.53-.39-2.64-.95-3.33-1.69-.7-.74-1.04-1.64-1.04-2.71,0-1.33.53-2.43,1.58-3.29,1.05-.86,2.66-1.45,4.82-1.78v-.71c-1.63,0-2.84-.19-3.64-.58-.8-.38-1.2-.96-1.2-1.73s.4-1.48,1.2-2.04c.8-.56,2.1-1.05,3.91-1.47v-.76c-1.81-.09-3.19-.67-4.13-1.73-.95-1.07-1.42-2.43-1.42-4.09,0-1.51.41-2.82,1.22-3.93.81-1.11,1.98-1.97,3.49-2.58,1.51-.61,3.32-.91,5.42-.91h11.02v3.47l-7.24-1.07v.71c1.81.36,3.16.97,4.04,1.84.89.87,1.33,1.99,1.33,3.36,0,1.27-.37,2.39-1.11,3.33-.74.95-1.82,1.69-3.24,2.22-1.42.53-3.17.8-5.24.8-.44,0-.89-.02-1.33-.07-.44-.04-1.01-.13-1.69-.24-.92.47-1.62.92-2.09,1.33-.47.42-.71.79-.71,1.11,0,.3.2.53.6.69.4.16.9.27,1.51.33.61.06,1.18.09,1.71.09h5.69c.56,0,1.3.05,2.2.16.9.1,1.81.34,2.73.71.92.37,1.69.95,2.31,1.73.62.79.93,1.89.93,3.31,0,1.57-.47,2.85-1.4,3.84-.93.99-2.31,1.73-4.13,2.2-1.82.47-4.07.71-6.73.71ZM173.92,38.82c2.04,0,3.7-.13,4.96-.38,1.26-.25,2.17-.64,2.73-1.16.56-.52.84-1.16.84-1.93s-.19-1.32-.58-1.73c-.39-.41-.87-.7-1.44-.87-.58-.16-1.17-.27-1.78-.31-.61-.04-1.13-.07-1.58-.07h-5.33c-1.69.42-2.84.93-3.47,1.56-.62.62-.93,1.32-.93,2.09s.29,1.4.87,1.8c.58.4,1.36.67,2.36.8.99.13,2.11.2,3.36.2ZM174.45,23.71c1.81,0,3.18-.39,4.13-1.18.95-.78,1.42-1.84,1.42-3.18s-.49-2.53-1.47-3.42c-.98-.89-2.39-1.33-4.22-1.33s-3.17.44-4.18,1.31c-1.01.87-1.51,1.98-1.51,3.31,0,.89.23,1.67.69,2.33.46.67,1.13,1.19,2,1.58.87.39,1.92.58,3.13.58Z"/>
        <path d="M199.21,35.31c-1.57,0-2.98-.17-4.22-.51s-2.29-.83-3.13-1.47c-.84-.64-1.49-1.43-1.93-2.38-.44-.95-.67-2.03-.67-3.24l3.51-.76c-.06,1.1.18,2.02.71,2.78.53.76,1.3,1.33,2.31,1.71,1.01.39,2.21.58,3.6.58,1.78,0,3.15-.3,4.11-.89.96-.59,1.44-1.41,1.44-2.44,0-.83-.27-1.47-.8-1.93-.53-.46-1.27-.82-2.22-1.09-.95-.27-2.04-.52-3.29-.76-1.1-.27-2.18-.55-3.24-.84-1.07-.3-2.04-.68-2.91-1.16-.87-.47-1.57-1.11-2.09-1.91-.52-.8-.78-1.79-.78-2.98,0-1.39.36-2.6,1.09-3.62.73-1.02,1.77-1.81,3.13-2.38,1.36-.56,2.99-.84,4.89-.84s3.43.28,4.78.84c1.35.56,2.41,1.39,3.2,2.49.78,1.1,1.21,2.42,1.27,3.96l-3.56.8c0-1.07-.24-1.96-.73-2.67-.49-.71-1.18-1.24-2.07-1.6-.89-.36-1.91-.53-3.07-.53-1.57,0-2.81.3-3.71.89-.9.59-1.36,1.41-1.36,2.44,0,.83.27,1.48.82,1.96.55.47,1.3.84,2.24,1.09.95.25,2,.5,3.16.73,1.16.24,2.27.5,3.36.78,1.08.28,2.05.67,2.91,1.16.86.49,1.54,1.13,2.04,1.93.5.8.76,1.82.76,3.07,0,1.45-.39,2.69-1.18,3.71-.79,1.02-1.9,1.79-3.33,2.31-1.44.52-3.12.78-5.04.78Z"/>
        <path d="M109.96,81.66v-29.33h4.09v29.33h-4.09ZM111.61,55.93v-3.6h18.49v3.6h-18.49ZM111.61,69.22v-3.51h16.53v3.51h-16.53Z"/>
        <path d="M143.47,82.24c-2.16,0-4.08-.47-5.76-1.42-1.67-.95-2.99-2.32-3.93-4.11-.95-1.79-1.42-3.99-1.42-6.6s.49-4.93,1.47-6.69c.98-1.76,2.3-3.09,3.96-3.98,1.66-.89,3.53-1.33,5.6-1.33s3.99.46,5.67,1.38c1.67.92,3,2.28,3.98,4.09.98,1.81,1.47,4.04,1.47,6.71s-.48,4.84-1.44,6.62c-.96,1.78-2.28,3.11-3.96,4-1.67.89-3.55,1.33-5.62,1.33ZM143.61,78.91c1.39,0,2.6-.34,3.62-1.02,1.02-.68,1.81-1.66,2.36-2.93.55-1.27.82-2.78.82-4.53,0-1.84-.29-3.41-.87-4.73-.58-1.32-1.39-2.34-2.44-3.07-1.05-.73-2.32-1.09-3.8-1.09-1.39,0-2.6.33-3.62,1-1.02.67-1.82,1.64-2.38,2.91-.56,1.27-.84,2.8-.84,4.58,0,2.76.64,4.93,1.91,6.51,1.27,1.59,3.02,2.38,5.24,2.38Z"/>
        <path d="M159.61,81.66v-22.98h3.69l-.44,8.71h.67c.24-1.96.64-3.62,1.2-5,.56-1.38,1.31-2.43,2.24-3.16.93-.73,2.07-1.09,3.4-1.09.36,0,.73.03,1.13.09.4.06.84.18,1.31.36l-.22,4.27c-.44-.21-.89-.35-1.33-.42-.44-.07-.87-.11-1.29-.11-1.19,0-2.19.39-3.02,1.18-.83.79-1.52,1.87-2.07,3.24-.55,1.38-.96,2.97-1.22,4.78v10.13h-4.04Z"/>
        <path d="M187.78,81.66v-29.33h10.62c1.69,0,3.21.16,4.56.47,1.35.31,2.49.78,3.42,1.4.93.62,1.65,1.41,2.16,2.36.5.95.76,2.07.76,3.38,0,1.13-.23,2.13-.69,3.02-.46.89-1.19,1.62-2.18,2.18-.99.56-2.29.96-3.89,1.2v.49c2.73.21,4.73.93,6,2.16,1.27,1.23,1.91,2.88,1.91,4.96,0,1.66-.39,3.06-1.18,4.2-.79,1.14-1.99,2.02-3.6,2.62-1.62.61-3.67.91-6.16.91h-11.73ZM191.74,65.13h5.38c2.73,0,4.76-.39,6.09-1.18,1.33-.78,2-1.96,2-3.53s-.6-2.73-1.8-3.49c-1.2-.76-3.03-1.13-5.49-1.13h-6.18v9.33ZM191.74,78.2h8.04c2.22,0,3.88-.38,4.98-1.13,1.1-.76,1.64-1.92,1.64-3.49,0-1.81-.73-3.16-2.2-4.07-1.47-.9-3.68-1.36-6.64-1.36h-5.82v10.04Z"/>
        <path d="M223.21,82.24c-2.58,0-4.51-.91-5.8-2.73-1.29-1.82-1.93-4.58-1.93-8.29v-12.53h4.09v12.27c0,2.64.38,4.58,1.13,5.82s1.98,1.87,3.67,1.87c.95,0,1.79-.23,2.53-.69.74-.46,1.39-1.13,1.96-2.02s1.01-1.96,1.33-3.2c.33-1.24.55-2.65.67-4.22v-9.82h4.04v22.98h-3.64l.44-8.04h-.62c-.33,1.99-.84,3.62-1.53,4.89-.7,1.27-1.57,2.22-2.62,2.82-1.05.61-2.29.91-3.71.91Z"/>
        <path d="M249.83,89.17c-2.49,0-4.5-.19-6.02-.58-1.53-.39-2.64-.95-3.33-1.69-.7-.74-1.04-1.64-1.04-2.71,0-1.33.53-2.43,1.58-3.29,1.05-.86,2.66-1.45,4.82-1.78v-.71c-1.63,0-2.84-.19-3.64-.58-.8-.38-1.2-.96-1.2-1.73s.4-1.48,1.2-2.04c.8-.56,2.1-1.05,3.91-1.47v-.76c-1.81-.09-3.19-.67-4.13-1.73-.95-1.07-1.42-2.43-1.42-4.09,0-1.51.41-2.82,1.22-3.93.81-1.11,1.98-1.97,3.49-2.58,1.51-.61,3.32-.91,5.42-.91h11.02v3.47l-7.24-1.07v.71c1.81.36,3.16.97,4.04,1.84.89.87,1.33,1.99,1.33,3.36,0,1.27-.37,2.39-1.11,3.33-.74.95-1.82,1.69-3.24,2.22-1.42.53-3.17.8-5.24.8-.44,0-.89-.02-1.33-.07s-1.01-.13-1.69-.24c-.92.47-1.62.92-2.09,1.33-.47.42-.71.79-.71,1.11,0,.3.2.53.6.69.4.16.9.27,1.51.33.61.06,1.18.09,1.71.09h5.69c.56,0,1.3.05,2.2.16.9.1,1.82.34,2.73.71.92.37,1.69.95,2.31,1.73.62.79.93,1.89.93,3.31,0,1.57-.47,2.85-1.4,3.84-.93.99-2.31,1.73-4.13,2.2-1.82.47-4.07.71-6.73.71ZM249.83,85.75c2.04,0,3.7-.13,4.96-.38,1.26-.25,2.17-.64,2.73-1.16.56-.52.84-1.16.84-1.93s-.19-1.32-.58-1.73c-.39-.41-.87-.7-1.44-.87-.58-.16-1.17-.27-1.78-.31-.61-.04-1.13-.07-1.58-.07h-5.33c-1.69.42-2.84.93-3.47,1.56-.62.62-.93,1.32-.93,2.09s.29,1.4.87,1.8c.58.4,1.36.67,2.36.8.99.13,2.11.2,3.36.2ZM250.36,70.64c1.81,0,3.18-.39,4.13-1.18.95-.78,1.42-1.84,1.42-3.18s-.49-2.53-1.47-3.42c-.98-.89-2.38-1.33-4.22-1.33s-3.17.44-4.18,1.31c-1.01.87-1.51,1.98-1.51,3.31,0,.89.23,1.67.69,2.33.46.67,1.13,1.19,2,1.58.87.39,1.92.58,3.13.58Z"/>
        <path d="M275.12,82.24c-1.57,0-2.98-.17-4.22-.51-1.24-.34-2.29-.83-3.13-1.47-.84-.64-1.49-1.43-1.93-2.38-.44-.95-.67-2.03-.67-3.24l3.51-.76c-.06,1.1.18,2.02.71,2.78.53.76,1.3,1.33,2.31,1.71,1.01.39,2.21.58,3.6.58,1.78,0,3.15-.3,4.11-.89.96-.59,1.44-1.41,1.44-2.44,0-.83-.27-1.47-.8-1.93-.53-.46-1.27-.82-2.22-1.09-.95-.27-2.04-.52-3.29-.76-1.1-.27-2.18-.55-3.24-.84-1.07-.3-2.04-.68-2.91-1.16-.87-.47-1.57-1.11-2.09-1.91-.52-.8-.78-1.79-.78-2.98,0-1.39.36-2.6,1.09-3.62.73-1.02,1.77-1.81,3.13-2.38,1.36-.56,2.99-.84,4.89-.84s3.43.28,4.78.84c1.35.56,2.41,1.39,3.2,2.49.78,1.1,1.21,2.42,1.27,3.96l-3.56.8c0-1.07-.24-1.96-.73-2.67-.49-.71-1.18-1.24-2.07-1.6-.89-.36-1.91-.53-3.07-.53-1.57,0-2.81.3-3.71.89-.9.59-1.36,1.41-1.36,2.44,0,.83.27,1.48.82,1.96.55.47,1.3.84,2.24,1.09.95.25,2,.5,3.16.73,1.16.24,2.27.5,3.36.78,1.08.28,2.05.67,2.91,1.16.86.49,1.54,1.13,2.04,1.93.5.8.76,1.82.76,3.07,0,1.45-.39,2.69-1.18,3.71-.79,1.02-1.9,1.79-3.33,2.31-1.44.52-3.12.78-5.04.78Z"/>
      </g>
      <g>
        <path class="cls-1" d="M85.66,42.19l-6.74.32c1.05,3.27,1.62,6.77,1.62,10.41,0,.53-.01,1.06-.04,1.59l9.08.25c1.05.03,2.44,2.09,2.32,3.03-.13.94-1.7,2.74-2.69,2.75l-9.55.12c-.89,3.82-2.42,7.38-4.47,10.55,2.65.2,6.64-.65,7.37.62l6.17,10.76c.5.87-.67,3.33-1.51,3.66-.99.39-3.23-.39-3.78-1.34l-4.5-7.77c-3.56-.5-6.14-.65-8.09-.55-5.17,5.17-12.03,8.54-19.64,9.1V20.13s.07,0,.1,0l-.02-3.21-.05-6.36v-1.61c2.56.19,4.1.68,6.46,1.81.08.04.16.08.25.12l9.5-9.42c1.15-1.13,2.77-1.86,4.17-1.23,1.02.46,1.88,3.35,1.04,4.2l-10.04,10.02c1.35,1.32,2.52,2.75,3.43,4.35,1.33,2.3,2.14,4.95,2.22,8.12.74.6,1.45,1.23,2.14,1.89,2.33,2.23,4.32,4.83,5.91,7.7l5.79.1,5.06-8.76c.44-.77,2.83-.76,3.59-.55.9.25,1.84,2.6,1.37,3.45l-6.46,11.45Z"/>
        <path class="cls-1" d="M6.59,42.19l6.74.32c-1.05,3.27-1.62,6.77-1.62,10.41,0,.53.01,1.06.04,1.59l-9.08.25c-1.05.03-2.44,2.09-2.32,3.03.13.94,1.7,2.74,2.69,2.75l9.55.12c.89,3.82,2.42,7.38,4.47,10.55-2.65.2-6.64-.65-7.37.62l-6.17,10.76c-.5.87.67,3.33,1.51,3.66.99.39,3.23-.39,3.78-1.34l4.5-7.77c3.56-.5,6.14-.65,8.09-.55,5.17,5.17,12.03,8.54,19.64,9.1V20.13s-.07,0-.1,0l.02-3.21.05-6.36v-1.61c-2.56.19-4.1.68-6.46,1.81-.08.04-.16.08-.25.12L24.81,1.47c-1.15-1.13-2.77-1.86-4.17-1.23-1.02.46-1.88,3.35-1.04,4.2l10.04,10.02c-1.35,1.32-2.52,2.75-3.43,4.35-1.33,2.3-2.14,4.95-2.22,8.12-.74.6-1.45,1.23-2.14,1.89-2.33,2.23-4.32,4.83-5.91,7.7l-5.79.1-5.06-8.76c-.44-.77-2.83-.76-3.59-.55-.9.25-1.84,2.6-1.37,3.45l6.46,11.45Z"/>
      </g>
    </g>
  </g>
</svg>