<?xml version="1.0" encoding="UTF-8"?>
<svg id="Layer_2" data-name="Layer 2" xmlns="http://www.w3.org/2000/svg" viewBox="0 0 218.69 204.74">
  <defs>
    <style>
      .cls-1 {
        fill: #fd4d1b;
      }
    </style>
  </defs>
  <g id="Layer_1-2" data-name="Layer 1">
    <g>
      <path class="cls-1" d="M203.08,100.02l-15.99.75c2.49,7.75,3.84,16.06,3.84,24.69,0,1.26-.03,2.52-.08,3.77l21.52.6c2.49.07,5.79,4.95,5.5,7.19-.3,2.22-4.03,6.49-6.38,6.53l-22.65.28c-2.11,9.07-5.74,17.5-10.59,25.02,6.29.48,15.74-1.54,17.47,1.48l14.63,25.5c1.18,2.06-1.59,7.9-3.59,8.68-2.34.91-7.65-.91-8.97-3.17l-10.68-18.41c-8.45-1.2-14.54-1.54-19.18-1.3-12.25,12.25-28.52,20.24-46.55,21.57V47.72c.08,0,.17,0,.23.02l-.05-7.62-.12-15.08-.03-3.82c6.11.45,9.75,1.61,15.36,4.3.18.1.38.18.58.28l22.53-22.33c2.72-2.69,6.57-4.42,9.9-2.92,2.42,1.1,4.47,7.95,2.47,9.95l-23.81,23.76c3.2,3.14,5.98,6.52,8.14,10.31,3.15,5.46,5.06,11.74,5.26,19.24,1.74,1.41,3.44,2.91,5.06,4.48,5.51,5.3,10.24,11.44,14.01,18.25l13.73.25,12-20.77c1.05-1.83,6.71-1.81,8.5-1.31,2.14.58,4.37,6.16,3.24,8.17l-15.31,27.15Z"/>
      <path class="cls-1" d="M15.61,100.02l15.99.75c-2.49,7.75-3.84,16.06-3.84,24.69,0,1.26.03,2.52.08,3.77l-21.52.6c-2.49.07-5.79,4.95-5.5,7.19.3,2.22,4.03,6.49,6.38,6.53l22.65.28c2.11,9.07,5.74,17.5,10.59,25.02-6.29.48-15.74-1.54-17.47,1.48l-14.63,25.5c-1.18,2.06,1.59,7.9,3.59,8.68,2.34.91,7.65-.91,8.97-3.17l10.68-18.41c8.45-1.2,14.54-1.54,19.18-1.3,12.25,12.25,28.52,20.24,46.55,21.57V47.72c-.08,0-.17,0-.23.02l.05-7.62.12-15.08.03-3.82c-6.11.45-9.75,1.61-15.36,4.3-.18.1-.38.18-.58.28L58.81,3.47c-2.72-2.69-6.57-4.42-9.9-2.92-2.42,1.1-4.47,7.95-2.47,9.95l23.81,23.76c-3.2,3.14-5.98,6.52-8.14,10.31-3.15,5.46-5.06,11.74-5.26,19.24-1.74,1.41-3.44,2.91-5.06,4.48-5.51,5.3-10.24,11.44-14.01,18.25l-13.73.25-12-20.77c-1.05-1.83-6.71-1.81-8.5-1.31-2.14.58-4.37,6.16-3.24,8.17l15.31,27.15Z"/>
    </g>
  </g>
</svg>